<?xml version="1.0" standalone="no"?>
<!DOCTYPE svg PUBLIC "-//W3C//DTD SVG 20010904//EN"
 "http://www.w3.org/TR/2001/REC-SVG-20010904/DTD/svg10.dtd">
<svg version="1.0" xmlns="http://www.w3.org/2000/svg"
 width="1024.000000pt" height="1024.000000pt" viewBox="0 0 1024.000000 1024.000000"
 preserveAspectRatio="xMidYMid meet">
<metadata>
Created by potrace 1.14, written by Peter Selinger 2001-2017
</metadata>
<g transform="translate(0.000000,1024.000000) scale(0.100000,-0.100000)"
fill="#000000" stroke="none">
<path d="M6234 9803 c11 -814 16 -1305 21 -2078 7 -1003 14 -1446 25 -1465 6
-9 10 50 10 155 2 257 -1 1139 -5 1405 -1 129 -3 727 -4 1328 l-1 1092 -26 0
-25 0 5 -437z"/>
<path d="M3680 9805 c-25 -30 -50 -38 -68 -22 -9 8 -38 18 -63 21 -40 6 -49 3
-72 -18 -35 -33 -46 -34 -80 -12 -24 16 -34 17 -65 8 -32 -10 -38 -9 -55 8
-14 16 -22 18 -37 10 -10 -5 -30 -10 -44 -10 -53 0 -166 -59 -166 -87 0 -7
-11 -13 -27 -13 -15 0 -46 -9 -69 -20 -35 -17 -41 -25 -36 -43 5 -22 5 -22
-16 -3 -12 11 -22 17 -23 15 0 -2 -2 -14 -5 -26 -6 -35 -58 -128 -72 -129 -6
-1 -16 -2 -22 -3 -5 0 -10 -7 -10 -15 0 -8 -9 -17 -19 -21 -11 -3 -22 -13 -25
-21 -3 -8 -10 -12 -16 -9 -5 3 -10 1 -10 -4 0 -6 -6 -11 -14 -11 -8 0 -16 -7
-20 -15 -3 -8 -9 -14 -13 -13 -33 9 -83 -61 -83 -117 0 -24 -5 -34 -20 -38
-23 -6 -27 -39 -6 -56 22 -19 25 -47 6 -61 -17 -12 -16 -15 11 -39 16 -14 29
-31 29 -37 0 -7 -23 -18 -51 -25 -39 -10 -47 -16 -36 -24 15 -11 12 -35 -4
-35 -6 0 -7 5 -4 10 3 6 2 10 -4 10 -16 0 -22 -18 -9 -24 9 -4 6 -10 -9 -22
-13 -9 -23 -20 -23 -25 0 -4 -5 -20 -12 -36 -11 -27 -15 -44 -21 -95 -1 -13
-6 -28 -10 -35 -4 -7 -12 -51 -18 -99 -5 -48 -12 -91 -15 -96 -3 -5 -10 -35
-15 -66 -5 -31 -12 -68 -15 -82 -45 -213 -45 -766 0 -835 19 -30 18 -39 -8
-43 -29 -4 -56 -32 -56 -56 0 -12 9 -32 20 -46 27 -34 27 -59 0 -35 -28 26
-37 11 -17 -30 9 -20 17 -40 17 -45 0 -26 36 -90 51 -90 9 0 20 -7 23 -16 9
-23 8 -23 -14 -19 -17 3 -19 1 -10 -15 7 -12 7 -27 0 -45 -14 -37 -13 -85 3
-85 7 0 6 -4 -4 -10 -13 -8 -15 -24 -12 -94 2 -47 8 -98 14 -113 10 -27 22
-110 21 -147 -1 -10 -9 -27 -18 -38 -22 -23 -25 -105 -5 -117 7 -5 11 -13 7
-19 -8 -14 34 -64 49 -58 22 8 77 -132 79 -201 1 -13 6 -23 12 -23 5 0 10 -10
11 -22 1 -36 27 -128 35 -128 5 0 8 -7 8 -15 0 -8 4 -15 9 -15 6 0 9 -8 8 -18
0 -10 6 -34 15 -53 9 -19 26 -56 37 -82 12 -26 26 -45 31 -42 6 4 10 -2 10
-12 1 -19 39 -95 40 -78 0 5 7 0 15 -12 9 -12 14 -28 13 -35 -2 -8 4 -12 15
-10 12 2 17 -4 17 -22 0 -13 6 -31 13 -38 17 -19 47 -69 54 -91 3 -11 12 -16
20 -12 11 3 13 1 9 -10 -3 -8 -1 -15 5 -15 18 0 32 -46 20 -68 -6 -11 -77 -65
-158 -119 -82 -55 -209 -140 -283 -190 -192 -129 -611 -364 -690 -388 -14 -4
-88 -39 -164 -77 -163 -81 -413 -243 -561 -363 -58 -46 -138 -107 -177 -134
-40 -27 -100 -77 -133 -110 -37 -38 -68 -61 -82 -61 -57 0 -144 -55 -178 -115
-13 -22 -45 -103 -70 -180 -38 -118 -47 -157 -52 -245 -3 -58 -1 -129 5 -159
9 -52 8 -58 -22 -115 -27 -53 -32 -72 -36 -165 -6 -101 -8 -109 -43 -166 -57
-92 -78 -170 -84 -315 -6 -128 -9 -141 -59 -210 -22 -31 -25 -43 -23 -110 2
-57 -3 -98 -24 -170 l-27 -95 0 -968 0 -967 1962 2 c1686 3 1963 5 1963 17 0
8 6 16 14 19 10 3 12 -1 8 -18 -4 -17 -3 -20 5 -12 7 7 17 8 29 2 11 -7 20 -7
24 0 4 7 13 7 26 0 14 -8 19 -7 19 1 0 7 10 9 28 5 26 -6 26 -6 8 9 -13 10
-23 12 -30 5 -17 -17 -28 -11 -21 10 5 16 2 20 -17 20 -17 0 -19 3 -9 9 7 5
10 14 7 20 -4 6 -3 11 2 11 5 0 12 8 14 18 4 12 -1 18 -13 19 -11 1 -16 -3
-13 -12 3 -7 0 -16 -5 -20 -6 -3 -9 -11 -6 -16 4 -5 -3 -9 -14 -9 -20 0 -20 0
1 40 12 22 26 40 30 40 5 0 6 5 2 11 -3 6 -2 14 4 18 7 4 8 12 2 21 -8 12 -10
12 -10 -3 0 -11 -6 -17 -12 -14 -21 6 -15 31 10 43 22 10 22 11 6 25 -11 9
-15 9 -10 2 4 -9 1 -13 -10 -13 -12 0 -15 7 -12 30 3 16 1 30 -4 30 -4 0 -8
-7 -8 -15 0 -20 -17 -19 -38 1 -15 15 -14 16 6 10 17 -6 23 -2 28 19 4 15 1
31 -6 40 -7 8 -9 15 -4 16 5 1 -2 5 -16 9 -24 8 -24 8 -2 9 21 1 33 21 12 21
-18 0 -11 20 8 21 14 0 14 2 -3 9 -11 5 -16 9 -11 9 6 1 1 8 -10 16 -10 8 -14
15 -8 15 15 0 27 47 17 63 -4 7 -8 21 -9 32 -1 11 -5 29 -9 39 -6 14 -5 17 3
12 7 -4 12 -2 12 3 0 14 -17 14 -25 1 -7 -11 -35 -2 -35 11 0 5 7 9 15 9 9 0
12 6 9 15 -4 8 -1 15 5 15 6 0 11 -7 11 -16 0 -8 5 -12 10 -9 6 3 10 13 10 21
0 20 -40 18 -57 -4 -13 -16 -13 -16 -11 3 2 12 13 22 27 25 13 3 26 11 29 18
3 11 1 11 -16 1 -25 -16 -44 -3 -22 14 27 22 22 37 -12 37 -23 0 -29 3 -19 9
11 7 11 10 0 17 -10 6 -7 10 11 15 24 7 24 7 3 8 -29 1 -30 21 -2 21 15 0 19
4 15 16 -5 13 -2 15 14 11 11 -3 20 -1 20 4 0 5 -9 9 -21 9 -11 0 -18 4 -14 9
3 5 -6 19 -21 30 -25 20 -26 43 -1 37 7 -1 9 -1 5 1 -13 7 -9 25 9 46 15 15
15 19 3 17 -29 -4 -39 0 -34 15 5 11 1 14 -12 9 -11 -3 -8 1 6 10 16 10 19 15
10 16 -12 0 -13 2 -1 9 11 7 10 13 -5 35 -11 14 -22 26 -26 26 -12 0 -9 -25 4
-38 14 -14 -8 -46 -25 -35 -7 4 -4 9 7 13 16 5 17 8 4 21 -14 13 -32 89 -22
89 3 0 16 -11 30 -25 14 -14 30 -25 37 -24 9 0 9 2 0 5 -7 3 -9 12 -6 20 4 10
0 12 -11 8 -14 -5 -16 -2 -11 17 5 19 0 28 -25 42 -16 10 -30 21 -31 25 0 4
-3 18 -5 32 -2 14 -6 41 -8 60 -2 19 -5 35 -6 35 -1 0 -3 16 -5 35 -3 19 -7
50 -11 69 -5 31 -12 80 -18 136 -1 12 -5 25 -7 30 -6 11 -11 58 -13 113 -1 17
-4 32 -8 32 -5 0 -8 12 -8 28 0 15 -4 43 -10 62 -5 19 -12 58 -15 85 -3 28 -9
61 -11 75 -3 14 -6 42 -7 63 0 20 -4 37 -9 37 -5 0 -8 8 -7 17 1 10 -3 31 -9
46 -7 16 -14 44 -16 62 -3 19 -7 38 -9 42 -3 4 -8 37 -11 73 -4 36 -8 72 -10
80 -1 8 -6 38 -10 65 -5 28 -18 113 -31 190 -23 139 -31 194 -40 270 -3 22 -9
60 -14 85 -5 25 -10 52 -9 60 0 8 -5 51 -12 94 -6 44 -10 90 -7 103 2 12 -1
24 -7 26 -7 3 -5 11 7 24 19 21 23 53 7 53 -5 0 -10 5 -10 10 0 6 10 10 23 10
18 0 19 2 7 10 -12 8 -11 10 8 10 25 0 29 -12 8 -30 -19 -15 -9 -41 12 -32 15
5 15 4 3 -11 -11 -14 -11 -18 3 -23 9 -3 16 -12 16 -20 0 -8 6 -14 13 -14 6 0
1 -9 -13 -20 l-25 -20 28 0 c16 0 26 -4 22 -9 -3 -6 2 -14 11 -19 11 -6 13
-11 5 -16 -6 -4 -11 -18 -11 -32 0 -20 5 -24 28 -24 21 0 24 -2 12 -10 -13 -8
-12 -10 4 -10 15 0 16 -3 6 -15 -10 -13 -9 -15 11 -16 14 -1 18 -3 8 -6 -10
-2 -16 -15 -16 -39 0 -32 3 -35 24 -29 19 4 23 2 23 -20 0 -14 -4 -25 -10 -25
-5 0 -10 -7 -10 -16 0 -8 5 -12 10 -9 6 3 10 -2 10 -12 0 -14 2 -15 9 -4 5 8
11 9 15 3 3 -6 2 -13 -4 -17 -5 -3 -10 -11 -10 -16 0 -6 4 -8 8 -5 4 2 14 1
22 -5 9 -5 10 -9 3 -9 -8 0 -9 -9 -3 -29 5 -17 4 -33 -2 -39 -6 -6 -6 -12 1
-16 5 -4 8 -13 4 -21 -3 -8 0 -15 7 -15 7 0 10 -7 6 -15 -4 -11 1 -15 17 -15
15 0 18 -3 9 -8 -9 -7 -10 -16 -1 -43 7 -19 16 -38 20 -43 13 -15 11 -26 -5
-26 -13 0 -13 -6 1 -45 8 -25 18 -45 23 -45 13 0 18 -36 8 -54 -7 -12 -5 -16
7 -16 8 0 15 -4 15 -10 0 -5 -5 -10 -10 -10 -7 0 -7 -7 0 -21 7 -11 9 -27 6
-35 -3 -9 1 -14 12 -14 15 0 15 -2 2 -10 -13 -9 -13 -12 2 -23 10 -8 15 -21
12 -34 -4 -13 3 -30 20 -48 18 -20 23 -31 15 -36 -6 -4 -8 -12 -4 -18 12 -20
14 -66 3 -72 -7 -4 -6 -9 1 -13 6 -4 11 -2 11 3 0 6 5 11 11 11 6 0 8 -9 4
-20 -4 -12 -1 -28 7 -37 9 -12 9 -15 1 -9 -7 4 -13 2 -13 -3 0 -6 5 -11 11
-11 8 0 7 -5 -1 -15 -7 -9 -10 -19 -6 -22 4 -4 12 -1 17 7 8 12 9 10 4 -7 -3
-12 -2 -24 3 -27 5 -3 7 -16 5 -30 -3 -15 0 -26 9 -29 8 -3 8 -3 -2 -2 -17 2
-45 -23 -36 -32 3 -3 11 -1 19 5 10 8 16 6 25 -8 10 -16 9 -18 -4 -13 -14 5
-15 3 -3 -18 16 -28 21 -79 8 -79 -5 0 -9 5 -9 12 0 6 -3 8 -7 5 -3 -4 4 -18
17 -32 23 -25 16 -37 -8 -13 -9 9 -12 8 -12 -5 0 -9 5 -17 10 -17 16 0 12 -15
-10 -40 -21 -24 -26 -50 -10 -50 5 0 6 8 3 18 -6 15 -5 15 10 3 19 -15 23 -42
6 -39 -6 2 -14 -3 -16 -10 -3 -8 1 -10 12 -6 13 5 15 1 11 -20 -3 -14 -1 -26
4 -26 5 0 7 -7 4 -15 -4 -8 -10 -12 -15 -9 -15 9 -10 -13 6 -26 13 -10 19 -10
35 5 19 17 19 19 2 31 -16 13 -16 14 1 8 12 -4 17 -1 17 11 0 9 -4 13 -10 10
-5 -3 -10 -1 -10 4 0 6 7 11 15 11 18 0 19 12 3 28 -9 9 -9 12 0 12 7 0 9 7 5
17 -5 12 -2 15 10 10 16 -6 16 -5 1 18 -12 18 -13 25 -4 25 9 0 8 6 -3 18 -19
21 -23 42 -5 24 19 -19 24 -14 23 26 0 20 4 40 10 44 6 5 4 18 -7 38 -10 17
-12 28 -6 24 8 -5 9 -1 4 12 -4 10 -12 39 -16 64 -15 76 -28 134 -35 152 -4
11 -3 18 4 18 9 0 8 6 -1 22 -7 13 -11 26 -10 31 1 4 -3 7 -8 7 -7 0 -8 6 -2
17 6 11 5 27 -4 48 -7 18 -10 36 -6 40 4 3 0 12 -8 18 -8 7 -16 23 -17 37 -7
84 -16 142 -29 193 -8 33 -12 63 -9 67 3 5 1 12 -5 15 -6 4 -8 15 -5 26 4 10
2 19 -3 19 -6 0 -9 8 -8 18 2 9 -2 20 -8 24 -8 5 -7 13 2 29 8 11 9 18 4 15
-5 -3 -12 9 -15 27 -2 17 0 35 5 38 6 4 5 8 -2 11 -11 3 -14 19 -19 91 -1 5
-5 6 -10 2 -6 -3 -6 6 -1 24 7 25 6 29 -8 23 -15 -5 -15 -4 -3 11 10 12 10 17
2 17 -8 0 -10 8 -6 20 4 11 2 20 -4 20 -6 0 -12 -6 -12 -12 -1 -7 -5 5 -8 27
-4 22 -3 45 2 52 5 7 7 16 4 20 -3 4 -8 35 -12 68 -8 69 -10 75 -33 75 -15 0
-15 2 -2 10 13 9 13 12 -1 23 -9 6 -19 28 -23 47 -3 19 -15 53 -26 75 -10 22
-21 69 -24 105 -2 36 -5 68 -5 73 -1 4 -9 7 -18 7 -14 0 -15 2 -4 12 10 11 16
8 31 -12 11 -14 26 -33 34 -42 9 -10 19 -30 22 -45 4 -16 10 -30 13 -33 3 -3
11 -13 16 -24 16 -29 28 -20 30 24 2 31 -2 41 -17 46 -10 3 -16 10 -13 15 4 5
-1 12 -9 15 -9 3 -16 15 -16 25 0 10 -6 19 -13 19 -7 0 -29 33 -50 73 -91 178
-147 283 -156 294 -6 7 -11 18 -11 25 0 7 -7 22 -15 32 -17 22 -20 66 -5 66
14 0 50 42 50 59 1 9 12 29 25 46 24 29 24 29 45 10 11 -10 18 -20 16 -22 -2
-3 3 -13 12 -23 12 -14 20 -16 34 -9 20 11 42 3 33 -12 -4 -5 0 -18 8 -29 13
-18 16 -19 27 -5 14 17 35 21 25 5 -3 -6 1 -10 9 -10 9 0 16 6 17 13 1 6 5 1
9 -13 l8 -25 1 25 c2 24 2 24 16 6 8 -11 15 -14 15 -7 0 7 5 9 11 5 6 -3 14
-2 18 4 4 7 12 8 21 1 12 -7 12 -11 2 -17 -10 -7 -10 -11 3 -22 8 -7 19 -10
22 -6 4 4 1 11 -7 16 -11 7 -11 10 -2 10 9 0 10 5 2 19 -5 11 -10 31 -10 45 0
14 -5 26 -11 26 -5 0 -8 -4 -5 -8 3 -5 -1 -9 -8 -9 -8 0 -12 7 -8 15 4 12 0
14 -16 10 -12 -4 -20 -2 -17 2 9 14 -7 41 -21 36 -7 -3 -21 3 -30 12 -10 9
-20 17 -23 17 -3 0 -22 12 -42 28 -20 15 -43 27 -51 27 -18 0 -58 61 -58 88
-1 15 -3 14 -16 -3 l-15 -20 -12 20 c-6 11 -12 26 -13 33 -4 22 -13 27 -27 13
-9 -10 -14 -3 -22 35 -6 26 -17 50 -24 52 -10 3 -12 -1 -8 -11 3 -9 1 -19 -5
-23 -7 -4 -8 -3 -4 4 4 7 1 12 -9 12 -11 0 -15 5 -12 14 7 17 -18 54 -29 44
-9 -10 -33 22 -34 45 0 9 5 17 10 17 6 0 10 7 10 15 0 8 7 15 16 15 12 0 15
-6 10 -22 -14 -44 -11 -52 29 -74 49 -27 59 -28 79 -9 13 14 16 11 24 -27 6
-24 10 -36 11 -27 1 21 36 31 64 19 19 -7 19 -9 4 -9 -12 -1 -17 -7 -15 -18 4
-22 38 -30 49 -12 6 10 13 11 31 2 19 -10 105 -25 154 -28 6 0 22 -8 36 -17
15 -10 30 -13 38 -8 9 6 19 3 28 -8 9 -12 15 -13 18 -5 4 8 15 9 36 2 19 -5
38 -4 51 2 14 8 21 8 26 0 5 -7 19 -6 46 4 35 12 42 12 51 -1 6 -8 17 -14 25
-14 11 0 11 2 -1 11 -12 8 -8 9 13 4 20 -4 37 1 58 15 24 18 29 19 29 6 0 -9
-4 -16 -8 -16 -5 0 -15 -12 -23 -27 -7 -16 -24 -43 -38 -61 -32 -44 -75 -137
-96 -208 -23 -80 -95 -247 -135 -314 -5 -8 -16 -31 -26 -50 -9 -19 -26 -53
-37 -75 -20 -39 -53 -144 -62 -198 -4 -21 -2 -28 7 -24 7 2 21 -8 31 -22 l19
-26 -5 33 c-2 22 1 36 10 39 7 3 13 10 13 15 0 6 -6 8 -14 5 -9 -4 -16 3 -18
18 -6 30 1 40 34 49 26 6 27 5 24 -28 -2 -19 -7 -39 -11 -45 -5 -9 2 -10 22
-4 15 4 38 7 50 6 12 0 24 5 27 13 3 8 13 14 22 14 10 0 14 5 11 14 -4 10 -1
13 9 9 7 -3 14 -9 14 -14 0 -4 12 -15 28 -24 l27 -16 -27 6 c-17 3 -28 1 -28
-5 0 -6 14 -13 30 -16 28 -6 43 -24 20 -24 -6 0 -6 -9 -1 -22 4 -13 6 -34 4
-48 -6 -42 -6 -44 3 -64 5 -14 4 -17 -5 -11 -10 6 -12 0 -7 -21 6 -32 9 -93 6
-109 -6 -26 -4 -41 5 -47 5 -4 -1 -16 -14 -27 -13 -12 -19 -21 -12 -21 8 0 10
-17 7 -55 -2 -35 0 -55 7 -55 5 0 3 -8 -6 -18 -10 -10 -14 -21 -11 -24 3 -4 7
-26 10 -50 2 -23 6 -59 8 -78 3 -19 7 -57 10 -85 3 -27 13 -81 21 -120 9 -38
18 -90 21 -115 3 -25 7 -51 9 -57 2 -7 -1 -13 -8 -13 -8 0 -6 -4 3 -10 8 -5
11 -10 5 -10 -5 0 -4 -5 3 -12 15 -15 16 -32 1 -22 -8 5 -8 1 0 -14 6 -11 8
-27 5 -35 -3 -8 -1 -18 5 -21 6 -4 8 -13 4 -21 -3 -9 0 -21 6 -29 6 -7 8 -16
4 -19 -3 -4 -1 -7 7 -7 10 0 10 -3 0 -15 -10 -12 -10 -15 1 -15 12 0 12 -2 0
-9 -7 -5 -10 -14 -7 -20 4 -6 2 -11 -4 -11 -6 0 -8 -5 -5 -10 3 -6 -1 -18 -11
-27 -13 -14 -14 -18 -3 -21 25 -6 59 -25 59 -33 0 -4 -7 -9 -14 -12 -10 -4
-13 -1 -9 9 7 19 -11 18 -28 -2 -9 -11 -10 -21 -3 -32 12 -22 6 -72 -6 -51 -5
7 -13 10 -17 5 -4 -4 0 -13 10 -20 21 -16 22 -26 2 -26 -20 0 -19 -17 3 -29
16 -10 16 -10 0 -11 -26 0 -22 -35 5 -48 17 -8 18 -11 5 -11 -24 -1 -23 -10 4
-32 l21 -19 -21 0 c-23 0 -31 -25 -9 -33 9 -3 9 -8 -3 -21 -13 -16 -12 -20 5
-32 17 -13 14 -19 -7 -15 -5 0 -8 -3 -8 -9 0 -10 13 -14 36 -11 6 1 11 -6 11
-14 0 -8 -4 -15 -8 -15 -3 0 -9 -9 -12 -19 -3 -15 1 -21 17 -24 l21 -4 -22 -2
c-15 -1 -21 -7 -20 -21 1 -11 7 -20 14 -20 7 0 13 -4 13 -10 0 -5 -6 -10 -14
-10 -8 0 -18 -5 -22 -12 -5 -8 -2 -9 10 -5 13 5 19 1 23 -13 3 -11 10 -20 17
-20 6 0 4 -5 -4 -11 -11 -8 -8 -9 15 -5 23 5 26 4 15 -4 -13 -9 -12 -13 9 -30
13 -11 18 -20 12 -20 -7 0 -9 -5 -5 -11 3 -6 0 -15 -7 -20 -10 -6 -8 -9 8 -9
16 0 21 -4 16 -16 -3 -9 0 -20 8 -25 10 -6 10 -9 2 -9 -7 0 -13 -7 -13 -16 0
-10 -5 -12 -12 -7 -8 4 -6 -3 3 -17 10 -16 13 -33 9 -45 -6 -15 -2 -22 14 -27
16 -5 13 -6 -14 -8 -34 -1 -34 -2 -10 -11 18 -7 21 -12 11 -18 -9 -6 -6 -10
11 -15 l23 -7 -22 -9 c-25 -10 -31 -22 -10 -19 6 1 21 0 32 -1 17 -2 16 -3 -5
-9 -15 -5 -23 -14 -21 -22 2 -8 4 -21 4 -29 0 -8 4 -18 9 -21 11 -7 40 -120
34 -135 -3 -7 0 -14 5 -16 6 -2 11 -19 12 -38 1 -19 7 -38 12 -42 6 -4 11 -15
11 -25 1 -10 7 -31 14 -48 7 -16 12 -38 11 -48 -1 -10 5 -27 15 -38 13 -15 14
-19 3 -19 -8 0 -10 -3 -4 -8 6 -4 11 -18 13 -32 1 -13 8 -28 15 -32 8 -5 8 -8
1 -8 -7 0 -9 -11 -6 -25 2 -14 8 -25 12 -25 4 0 4 -15 0 -34 -7 -30 -5 -33 14
-30 11 3 15 2 9 -2 -14 -6 -18 -44 -5 -44 13 0 11 -64 -2 -72 -8 -5 -7 -8 2
-8 6 0 12 -9 12 -19 0 -11 8 -22 18 -24 14 -4 14 -5 -3 -6 -17 -1 -18 -3 -5
-12 11 -7 12 -12 3 -15 -7 -3 -9 -12 -6 -21 5 -12 3 -14 -7 -8 -9 5 -11 4 -6
-3 4 -7 15 -12 24 -12 13 0 14 -2 3 -9 -11 -7 -11 -9 0 -14 12 -5 12 -7 1 -15
-11 -7 -11 -10 2 -15 13 -5 14 -12 6 -32 -6 -15 -6 -24 -1 -20 5 3 12 1 16 -5
3 -5 -2 -10 -12 -11 -10 0 -13 -3 -6 -5 8 -4 9 -13 3 -30 -7 -18 -6 -24 5 -24
7 0 17 -5 20 -10 4 -7 -3 -9 -22 -5 -25 5 -26 4 -6 -4 15 -7 21 -16 17 -26 -4
-9 -1 -15 7 -16 8 0 5 -4 -6 -9 -12 -5 71 -9 208 -9 125 -1 227 0 227 2 0 1
-9 49 -21 107 -11 58 -22 114 -24 125 -2 11 -18 90 -34 175 -17 85 -42 214
-56 285 -14 72 -29 139 -34 150 -28 62 -109 568 -111 681 0 75 -7 77 -150 58
-69 -9 -141 -19 -160 -21 -35 -5 -36 -4 -48 42 -7 25 -10 50 -7 55 2 4 31 11
62 14 32 4 105 14 163 23 l106 16 -22 136 c-12 75 -26 165 -32 201 -6 36 -16
128 -22 205 -7 76 -16 171 -20 210 -5 38 -23 214 -39 390 -17 176 -33 331 -36
345 -5 26 -49 531 -61 703 -4 65 -3 97 4 97 20 0 25 -22 33 -154 5 -72 18
-221 29 -331 11 -110 27 -274 35 -365 9 -91 20 -201 25 -245 5 -44 12 -114 16
-155 25 -291 79 -798 94 -875 25 -137 32 -155 54 -155 11 0 92 9 180 20 155
19 195 31 177 54 -4 6 -7 20 -5 31 1 10 -1 24 -5 30 -5 5 -11 28 -15 50 -12
80 -17 100 -28 106 -7 4 -7 9 1 13 8 5 6 16 -5 37 -8 17 -17 47 -19 67 -8 74
-40 237 -47 240 -4 2 -3 12 2 22 6 12 6 21 1 25 -5 3 -10 18 -10 33 -1 46 -6
76 -14 90 -5 6 -6 15 -4 20 3 4 -1 45 -9 92 -7 47 -14 106 -14 132 0 26 -4 50
-10 53 -5 3 -10 11 -10 16 0 6 5 7 11 3 8 -4 7 0 -1 15 -6 12 -13 57 -15 101
-2 44 -7 85 -11 91 -4 7 -7 41 -6 76 1 35 -3 63 -7 63 -10 0 -33 51 -27 58 3
2 11 -8 17 -24 9 -23 13 -25 16 -12 3 10 -3 25 -11 34 -24 23 -34 45 -40 90
-4 23 -10 55 -15 71 -6 21 -5 35 2 43 9 10 9 11 0 6 -6 -3 -14 -2 -18 4 -3 5
-1 10 5 10 6 0 8 5 5 10 -4 6 -11 8 -16 5 -5 -4 -9 -1 -9 4 0 6 5 11 11 11 5
0 7 5 4 10 -4 6 -12 8 -18 4 -7 -3 -4 1 6 9 19 16 23 57 6 57 -6 0 -9 -7 -5
-15 9 -24 -9 -17 -22 7 -25 49 -31 77 -19 82 7 2 5 5 -5 5 -19 1 -59 69 -95
161 -35 91 -32 151 9 223 18 31 38 54 45 52 6 -2 14 1 17 8 3 8 10 6 20 -7 13
-17 18 -17 33 -5 15 12 16 12 10 -4 -6 -15 -4 -16 14 -6 16 8 24 8 33 -2 8 -9
8 -10 -3 -4 -9 5 -12 4 -7 -3 4 -6 13 -9 21 -6 17 7 35 -52 35 -118 0 -62 8
-82 26 -67 8 6 14 18 14 26 0 8 4 12 9 9 5 -3 11 3 14 14 3 11 12 20 20 20 13
0 13 -4 4 -25 -7 -14 -16 -25 -20 -25 -5 0 -6 -4 -2 -9 7 -12 -29 -73 -38 -64
-4 3 -7 -13 -7 -37 0 -37 2 -41 15 -30 12 10 15 9 15 -8 0 -11 3 -29 6 -39 6
-16 5 -15 -9 2 -26 33 -27 28 -27 -155 1 -23 2 -23 11 -7 6 11 9 32 5 48 -4
20 -2 28 7 26 17 -3 36 -30 29 -41 -3 -5 -9 -1 -13 10 -7 17 -8 17 -8 -3 -1
-13 5 -23 13 -23 7 0 19 -6 25 -14 9 -11 7 -15 -9 -19 -13 -3 -20 -13 -19 -29
0 -21 1 -21 8 -4 9 24 19 10 17 -24 -1 -14 -7 -24 -15 -22 -7 1 -10 -2 -6 -8
3 -6 11 -7 17 -4 7 5 8 2 2 -7 -7 -12 -13 -77 -15 -164 0 -15 -2 -16 -8 -6 -7
10 -9 11 -13 1 -2 -7 -4 3 -4 23 0 24 3 32 9 24 5 -7 6 -1 2 16 -4 19 -2 26 4
22 7 -3 8 0 5 9 -3 9 -10 14 -14 11 -5 -3 -11 1 -14 7 -3 7 -4 -26 -3 -74 1
-49 6 -88 10 -88 5 0 5 -5 1 -12 -10 -16 -5 -91 7 -102 6 -6 9 -5 9 4 0 9 7 5
16 -9 23 -32 26 -108 5 -108 -9 0 -18 4 -21 8 -4 5 -6 -7 -6 -25 0 -30 2 -32
12 -18 17 23 37 3 35 -32 -4 -59 -6 -66 -17 -66 -22 0 -23 -28 -3 -92 21 -71
23 -79 9 -58 -14 22 0 -98 16 -137 8 -20 9 -33 3 -33 -6 0 -7 -5 -3 -11 6 -10
14 -78 14 -126 0 -36 29 -133 29 -101 1 15 6 30 11 33 7 4 7 11 2 18 -5 7 -8
21 -6 32 7 38 7 60 -1 79 -7 15 -5 18 6 14 10 -4 15 1 15 13 0 12 -4 15 -10 9
-6 -6 -15 -10 -21 -10 -5 0 -4 4 4 9 12 8 12 12 2 25 -7 9 -11 23 -7 31 3 8 0
26 -6 40 -9 20 -8 28 5 43 18 20 23 37 8 27 -5 -3 -12 -1 -16 5 -3 5 -1 10 5
10 7 0 9 7 6 16 -6 15 -4 15 10 3 16 -13 16 -12 0 18 -14 28 -14 32 -1 27 16
-6 21 11 6 20 -5 3 -11 15 -14 26 -5 18 -3 19 10 8 14 -11 15 -11 6 7 -14 26
-23 105 -13 105 4 0 6 10 2 22 -3 14 -2 19 6 14 9 -5 9 0 2 19 -11 30 -11 137
0 130 4 -3 11 2 14 11 3 8 2 13 -3 10 -5 -3 -11 5 -13 19 -3 14 -1 22 4 18 6
-3 6 2 0 13 -10 21 -13 134 -2 134 3 0 5 18 4 40 -1 22 2 37 7 34 9 -5 10 -5
14 64 1 27 -1 38 -6 30 -13 -20 -11 -5 6 42 18 51 18 53 3 44 -8 -5 -9 -2 -3
12 5 10 9 35 10 55 0 20 5 43 11 50 16 20 25 61 11 52 -10 -6 -7 12 9 51 6 16
4 18 -9 13 -15 -6 -16 -3 -7 13 6 11 8 25 5 30 -3 6 -2 10 3 10 15 0 31 55 25
82 -4 19 -3 20 7 8 10 -12 11 -11 7 7 -3 13 -1 25 4 28 4 3 5 13 2 22 -4 11
-3 14 5 9 7 -4 12 -1 12 9 0 10 4 13 13 8 6 -4 17 -8 22 -8 33 -1 77 -67 54
-81 -5 -3 -7 -9 -4 -14 3 -5 1 -27 -4 -49 -6 -27 -5 -41 1 -41 6 0 5 -7 -2
-15 -7 -9 -10 -18 -7 -21 3 -3 2 -16 -3 -28 -4 -13 -4 -29 1 -39 7 -11 6 -17
-1 -17 -6 0 -9 -4 -6 -9 4 -5 2 -21 -4 -35 -5 -14 -5 -28 -1 -31 5 -3 7 -24 4
-48 -3 -23 -6 -50 -6 -59 -1 -10 -4 -18 -8 -18 -4 0 -6 -11 -5 -25 1 -18 7
-25 21 -25 15 0 17 2 6 9 -8 5 3 8 33 7 25 0 46 -4 46 -8 0 -5 -8 -8 -17 -8
-16 0 -16 -2 -3 -11 12 -9 10 -10 -8 -6 -18 4 -22 2 -20 -11 2 -10 11 -16 23
-14 11 2 16 -1 10 -5 -13 -11 -17 -33 -6 -33 5 0 12 6 14 13 3 7 6 5 6 -5 1
-11 -6 -18 -18 -18 -11 0 -22 -4 -25 -9 -3 -4 8 -7 24 -5 22 3 30 -1 35 -17 4
-11 4 -23 1 -26 -3 -4 -6 1 -6 10 0 9 -4 17 -9 17 -6 0 -6 -12 1 -31 6 -16 8
-33 5 -36 -3 -3 -9 6 -13 21 -3 14 -10 26 -16 26 -5 0 -6 5 -2 12 4 7 3 8 -5
4 -7 -5 -9 -12 -3 -19 5 -7 12 -20 15 -30 5 -14 2 -16 -21 -12 -19 4 -21 3 -9
-3 10 -4 18 -11 18 -15 -3 -22 0 -26 14 -21 8 4 15 1 15 -5 0 -6 -5 -11 -11
-11 -5 0 -7 -5 -4 -10 3 -6 -4 -15 -17 -20 -20 -9 -18 -9 10 -4 20 3 32 2 32
-5 0 -6 -3 -10 -7 -10 -22 4 -43 -2 -43 -12 0 -6 7 -9 15 -5 8 3 15 1 15 -4 0
-6 7 -10 15 -10 8 0 15 -7 15 -16 0 -9 5 -12 12 -8 7 4 8 3 4 -5 -4 -6 -12 -9
-17 -6 -5 4 -9 -2 -10 -12 0 -16 -1 -16 -9 2 -7 16 -9 17 -9 3 -1 -9 -7 -19
-13 -21 -7 -3 -1 -6 15 -6 29 -1 34 -18 16 -56 -7 -15 -8 -12 -4 15 4 27 3 30
-4 15 -17 -35 -13 -58 8 -52 13 3 22 -3 30 -19 12 -28 5 -31 -21 -7 -11 9 -18
11 -18 5 0 -7 6 -12 13 -13 6 0 3 -4 -8 -9 -11 -5 -14 -9 -7 -9 6 -1 12 -6 12
-12 0 -5 -5 -7 -11 -3 -8 4 -9 -1 -4 -17 4 -13 11 -25 16 -27 10 -4 -1 -34
-15 -44 -6 -4 0 -8 14 -8 15 0 31 5 38 12 9 9 12 9 12 -1 0 -7 -9 -15 -20 -18
-21 -6 -27 -28 -10 -38 5 -3 6 -15 1 -27 -6 -16 -3 -28 11 -42 10 -11 18 -29
17 -40 0 -21 -1 -21 -9 -1 -7 17 -9 17 -9 3 -1 -16 -11 -22 -31 -20 -3 0 -6
-8 -6 -19 0 -10 6 -19 14 -19 7 0 11 4 8 9 -3 5 1 11 9 15 19 7 19 -1 1 -36
-12 -23 -12 -28 -2 -28 8 0 17 17 21 38 4 20 10 31 12 25 3 -7 -1 -28 -7 -47
-8 -26 -16 -34 -28 -30 -13 5 -14 4 -3 -4 8 -6 10 -15 6 -23 -6 -9 -3 -11 9
-6 14 5 17 3 12 -8 -3 -8 0 -15 7 -15 8 0 8 -3 2 -8 -6 -4 -12 -20 -13 -35 -2
-27 0 -28 36 -22 27 4 32 3 17 -4 -11 -5 -30 -10 -43 -10 -13 -1 -20 -5 -17
-11 4 -6 11 -7 17 -4 8 5 9 -1 5 -17 -4 -13 -7 -27 -7 -30 0 -3 -12 -5 -27 -4
-21 2 -22 1 -5 -2 18 -3 23 -9 19 -24 -5 -19 9 -24 53 -20 8 1 4 -5 -10 -13
-16 -10 -19 -16 -10 -16 13 -1 13 -2 -1 -13 -9 -7 -14 -18 -11 -26 3 -8 0 -11
-7 -7 -6 4 -11 2 -11 -3 0 -6 12 -11 28 -11 19 0 23 -3 13 -9 -7 -5 -10 -15
-7 -22 4 -8 0 -5 -8 5 -9 11 -16 16 -16 10 0 -16 15 -32 35 -37 11 -2 0 -6
-25 -7 -34 -1 -40 -3 -25 -9 11 -5 23 -7 26 -5 11 6 5 -30 -6 -38 -5 -4 6 -8
25 -9 19 0 30 -3 23 -5 -7 -3 -10 -11 -7 -18 3 -7 -4 -12 -16 -12 -11 0 -19 5
-16 11 2 7 -2 12 -9 12 -10 0 -11 -5 -4 -19 5 -10 13 -17 17 -17 34 5 71 -3
77 -18 5 -15 4 -16 -6 -5 -7 6 -27 11 -44 11 -30 -2 -30 -2 -2 -6 15 -2 25 -9
22 -14 -4 -5 -1 -17 4 -26 6 -11 11 -13 11 -5 0 7 5 10 11 6 8 -4 7 -9 -2 -15
-8 -4 -19 -3 -28 4 -19 16 12 -44 35 -67 14 -15 14 -16 -5 -13 -11 2 -24 6
-27 10 -17 17 -25 5 -9 -13 10 -11 13 -20 8 -20 -6 0 -16 7 -23 15 -7 9 -15
13 -18 10 -3 -3 5 -17 19 -32 22 -25 22 -26 1 -9 -12 11 -24 17 -27 14 -3 -3
1 -11 10 -18 8 -7 15 -17 15 -23 0 -5 -9 -2 -20 8 -20 18 -21 18 -14 -1 7 -17
6 -18 -11 -4 -17 14 -17 14 -2 -15 19 -36 90 -106 80 -78 -6 16 -5 17 12 3 10
-8 19 -13 21 -10 1 3 6 2 10 -3 4 -4 3 -7 -3 -7 -6 0 -10 -10 -9 -23 1 -13 -4
-21 -11 -19 -21 4 -15 -8 10 -18 l22 -9 -22 0 c-23 -1 -51 34 -33 41 5 2 -16
30 -46 63 -54 58 -61 59 -22 3 17 -24 17 -27 2 -21 -27 10 -1 -30 30 -46 14
-8 28 -22 32 -33 3 -10 15 -18 27 -19 12 0 16 -3 9 -6 -10 -4 -10 -8 -1 -19 9
-11 8 -18 -1 -29 -7 -9 -10 -18 -7 -22 4 -3 1 -13 -6 -21 -8 -11 -8 -14 0 -9
6 4 14 3 18 -3 3 -6 -4 -11 -17 -11 -16 -1 -18 -3 -6 -6 18 -5 21 -62 3 -75
-6 -5 -5 -8 3 -8 6 0 12 -5 12 -11 0 -5 -4 -8 -9 -5 -5 3 -11 -1 -14 -9 -4 -9
-1 -12 9 -8 7 3 14 0 14 -6 0 -6 -4 -11 -8 -11 -5 0 -8 -10 -7 -23 1 -12 -2
-27 -7 -34 -6 -7 -8 -18 -5 -25 3 -8 6 -6 6 5 1 10 5 16 11 12 6 -3 6 -15 0
-30 -9 -23 -7 -46 6 -87 5 -17 3 -20 -10 -15 -22 9 -20 -2 7 -31 17 -20 18
-24 5 -19 -21 7 -24 -13 -6 -31 9 -9 6 -14 -13 -21 -23 -9 -23 -10 -3 -10 12
-1 24 -7 27 -15 4 -10 -1 -12 -16 -9 -17 4 -19 2 -8 -5 8 -6 11 -17 8 -27 -4
-9 -3 -13 2 -10 5 3 12 1 16 -5 3 -5 1 -10 -5 -10 -7 0 -9 -8 -5 -19 4 -14 0
-21 -12 -24 -11 -3 -6 -5 12 -6 22 -1 26 -4 16 -10 -13 -8 -13 -12 0 -27 11
-13 11 -18 2 -21 -10 -4 -10 -10 -2 -25 8 -15 7 -24 -6 -38 -16 -17 -16 -18 2
-14 14 4 18 -1 19 -23 1 -15 -1 -22 -3 -15 -3 6 -14 11 -26 11 -18 -1 -19 -2
-4 -6 11 -3 16 -11 13 -18 -3 -9 0 -12 10 -8 8 3 14 -1 14 -11 0 -9 -5 -16
-11 -16 -5 0 -7 -5 -4 -10 4 -6 10 -8 14 -5 5 2 9 -7 9 -20 0 -14 -3 -25 -7
-25 -3 0 -6 -23 -7 -50 0 -28 3 -45 7 -39 4 8 8 7 11 -2 3 -8 -2 -19 -11 -26
-14 -10 -12 -12 9 -8 25 4 25 4 -5 -20 l-30 -25 29 6 c26 4 28 3 16 -11 -11
-13 -10 -15 3 -9 10 3 20 -2 26 -15 16 -29 13 -38 -4 -15 -13 18 -14 17 -12
-13 1 -18 5 -33 8 -33 4 0 6 -18 5 -39 -1 -22 1 -38 4 -36 3 2 12 0 20 -6 12
-7 12 -9 -3 -9 -14 0 -17 -5 -12 -21 5 -14 1 -25 -12 -36 -16 -13 -16 -14 0
-9 10 3 17 0 17 -8 0 -8 -5 -16 -12 -18 -9 -3 -9 -6 0 -12 7 -4 12 -2 12 6 1
7 7 2 14 -11 9 -16 11 -35 5 -60 -5 -24 -4 -38 4 -43 9 -5 9 -10 -1 -20 -6 -6
-12 -19 -11 -27 0 -11 2 -12 6 -3 6 16 23 6 23 -14 0 -8 -5 -12 -10 -9 -6 4
-5 -5 2 -19 10 -23 17 -26 57 -25 40 0 43 2 22 10 -13 5 -32 7 -42 4 -11 -4
-19 -2 -19 4 0 16 27 18 83 7 20 -5 37 -12 37 -17 0 -5 947 -9 2255 -9 l2255
0 0 1575 0 1575 -60 136 c-33 74 -60 137 -60 140 0 3 -31 70 -70 150 -38 81
-70 148 -70 150 0 1 -23 44 -50 95 -28 51 -55 111 -61 133 -6 23 -24 59 -41
81 -62 84 -118 197 -118 238 0 51 -33 107 -99 170 -42 39 -54 60 -71 115 -18
63 -39 95 -112 176 -10 11 -18 25 -18 30 -2 81 -79 351 -126 436 -16 29 -19
56 -19 150 l0 115 -51 95 c-38 71 -52 110 -57 152 -6 59 -47 149 -90 198 -57
65 -171 110 -235 94 -27 -7 -66 -3 -147 12 -60 12 -162 27 -225 33 -63 7 -185
27 -270 46 -85 18 -189 38 -230 43 -92 13 -477 25 -865 27 -359 2 -702 28
-995 75 -86 14 -206 28 -305 35 l-80 7 -80 84 c-44 46 -83 84 -86 84 -4 0 -9
-44 -13 -97 -7 -101 -23 -173 -38 -173 -12 0 -10 24 4 38 9 9 10 17 2 30 -6 9
-10 43 -9 75 1 64 -18 75 -22 12 -1 -21 -4 -43 -7 -50 -2 -6 0 -18 4 -26 5 -7
5 -18 -1 -25 -5 -7 -9 -16 -8 -20 5 -27 -1 -36 -16 -24 -12 10 -15 9 -17 -6 0
-11 0 -27 0 -37 1 -10 -4 -20 -11 -23 -9 -3 -12 -16 -9 -34 3 -21 -1 -32 -12
-36 -9 -3 -13 -10 -10 -15 3 -5 2 -14 -2 -20 -4 -8 -9 -7 -15 2 -13 21 -12 -7
2 -33 8 -14 8 -23 0 -31 -7 -7 -5 -14 7 -23 16 -12 16 -14 0 -30 -10 -10 -21
-14 -25 -10 -4 4 -1 11 6 15 8 5 9 11 3 15 -5 3 -15 -1 -22 -9 -12 -14 -15
-29 -19 -78 0 -10 -5 -16 -10 -13 -5 3 -12 -5 -15 -19 -4 -14 -11 -25 -16 -25
-6 0 -10 -9 -10 -19 0 -11 -4 -23 -10 -26 -5 -3 -10 0 -10 7 0 10 -3 9 -11 -2
-8 -12 -12 -12 -16 -2 -9 22 -82 -93 -75 -120 1 -3 -5 -11 -13 -18 -11 -9 -13
-24 -8 -58 4 -30 3 -43 -4 -39 -6 4 -18 -4 -27 -18 -9 -14 -21 -25 -26 -25
-15 0 -12 26 5 40 8 7 12 16 9 21 -3 5 0 17 5 28 8 14 8 21 -2 24 -9 4 -9 6 1
6 15 1 16 31 1 31 -6 0 -8 9 -3 22 6 21 6 21 -11 5 -9 -10 -14 -24 -11 -32 3
-8 -2 -16 -12 -19 -19 -6 -28 -46 -11 -46 6 0 8 4 5 8 -2 4 -1 14 4 22 8 12
10 12 15 -2 10 -24 2 -63 -12 -64 -7 -1 -15 -2 -18 -3 -3 0 1 -14 10 -31 9
-17 11 -30 5 -30 -5 0 -10 -9 -10 -20 0 -11 -5 -20 -11 -20 -6 0 -9 -9 -6 -20
3 -11 1 -18 -4 -14 -5 3 -9 -2 -9 -10 0 -9 -7 -16 -16 -16 -11 0 -14 -5 -10
-17 4 -10 4 -14 0 -11 -4 4 -15 3 -25 -3 -13 -7 -19 -6 -19 1 0 6 6 13 14 16
8 3 17 12 20 20 4 12 2 12 -14 4 -14 -7 -20 -7 -20 0 0 5 -9 1 -20 -10 -24
-24 -25 -30 -4 -30 9 0 14 -6 11 -12 -2 -7 -12 -12 -21 -10 -15 3 -15 0 -4
-18 11 -17 11 -22 -1 -29 -9 -6 -10 -11 -2 -15 6 -4 13 4 17 19 7 28 19 33 28
9 8 -22 8 -24 -6 -21 -7 1 -13 -5 -13 -13 0 -24 -32 -63 -45 -55 -8 5 -6 11 7
20 10 7 15 17 11 21 -4 4 -14 1 -22 -5 -11 -9 -16 -9 -22 0 -5 8 -3 9 6 4 10
-6 12 -4 7 9 -4 10 -7 29 -7 44 0 20 -3 23 -12 14 -7 -7 -22 -12 -34 -12 -12
0 -25 -6 -28 -12 -3 -7 -3 0 0 17 3 16 11 33 17 37 9 6 9 8 0 8 -6 0 -19 -10
-28 -22 l-16 -23 5 26 c4 23 1 26 -16 21 -18 -4 -19 -2 -9 16 14 27 14 29 -4
29 -8 0 -15 -4 -15 -10 0 -5 -9 -20 -20 -34 -18 -23 -20 -24 -20 -6 0 16 -5
19 -30 15 -24 -3 -30 -1 -30 14 -1 18 -1 18 -12 0 -8 -15 -8 -21 0 -24 22 -7
12 -23 -10 -17 -13 3 -18 3 -13 -2 6 -4 11 -17 12 -28 1 -17 -2 -16 -23 8
l-24 28 0 -30 c0 -21 -6 -32 -20 -36 -11 -3 -20 -13 -20 -21 0 -8 -4 -14 -9
-14 -6 0 -8 15 -7 33 2 17 1 23 -1 12 -3 -11 -9 -24 -14 -30 -7 -7 -8 -3 -3
10 7 18 6 19 -10 6 -9 -8 -15 -22 -13 -32 3 -12 0 -16 -9 -12 -8 3 -21 0 -28
-6 -11 -9 -16 -9 -22 0 -4 8 -3 9 4 5 20 -12 13 23 -8 44 -11 11 -20 23 -19
26 0 3 -2 8 -5 11 -3 4 -6 1 -6 -5 0 -7 -8 -12 -17 -12 -15 0 -16 -2 -3 -10
12 -7 10 -11 -10 -18 -20 -7 -26 -6 -31 7 -6 15 -7 14 -14 -1 -4 -9 -4 -21 -1
-26 5 -9 -18 -25 -28 -19 -2 1 -14 -7 -27 -18 -12 -11 -19 -15 -16 -8 4 6 2
13 -4 15 -6 2 -2 14 10 30 26 32 27 44 3 20 -17 -17 -34 -47 -36 -64 -2 -16
-16 -19 -16 -4 0 12 -5 16 -15 12 -8 -3 -15 -1 -15 3 0 5 -7 12 -16 15 -8 3
-12 2 -9 -4 3 -6 -1 -10 -9 -10 -9 0 -16 -7 -16 -15 0 -9 -6 -12 -15 -9 -10 4
-15 0 -15 -11 0 -14 -3 -15 -15 -5 -12 10 -15 9 -15 -7 0 -14 -7 -19 -27 -20
-16 0 -39 -4 -52 -8 -16 -6 -22 -5 -18 2 4 6 -2 13 -14 16 -16 4 -19 10 -13
34 6 24 5 26 -7 16 -19 -16 -83 -27 -74 -13 3 6 0 7 -9 4 -10 -4 -16 -1 -16 9
0 22 -20 32 -31 16 -6 -10 -9 -6 -9 14 0 21 -5 27 -21 27 -24 0 -53 26 -44 40
3 5 1 10 -4 10 -6 0 -11 -7 -11 -15 0 -8 -3 -15 -7 -16 -5 0 -15 -2 -24 -4
-12 -2 -15 3 -12 16 6 21 -7 25 -25 7 -9 -9 -15 -9 -24 0 -16 16 -28 15 -28
-3 0 -20 -7 -19 -32 5 -15 13 -25 17 -32 10 -13 -13 -29 -13 -21 0 3 6 -2 10
-11 10 -10 0 -14 3 -11 7 13 12 -37 31 -52 19 -12 -9 -12 -7 -2 13 7 13 9 21
3 18 -5 -4 -18 1 -28 9 -18 15 -18 15 4 11 12 -3 22 -1 22 3 0 15 -23 24 -53
22 -21 -2 -30 3 -34 17 -6 23 -33 37 -33 17 0 -7 -7 -13 -15 -13 -8 0 -15 4
-15 9 0 5 -5 6 -11 3 -6 -4 -8 -14 -5 -22 3 -8 1 -11 -4 -8 -6 3 -10 12 -10
20 0 7 -6 16 -12 18 -10 4 -10 8 2 16 8 5 19 7 25 4 5 -4 6 -2 2 3 -4 4 -16 9
-25 9 -9 1 -29 2 -44 3 -16 1 -28 6 -28 12 0 5 8 6 17 3 13 -5 15 -3 8 13 -4
10 -10 32 -13 47 -4 28 -22 32 -30 7 -3 -7 0 -10 7 -6 14 9 11 -36 -4 -46 -17
-12 -24 2 -21 42 3 31 0 40 -13 40 -10 0 -12 3 -6 8 14 9 17 55 4 47 -5 -4 -9
-14 -10 -23 0 -9 -6 3 -14 27 -7 24 -11 49 -9 56 3 7 -5 16 -18 20 -19 6 -20
8 -5 12 20 5 23 43 4 43 -8 0 -21 8 -31 19 -15 16 -15 19 -1 31 15 12 12 25
-5 25 -5 0 -18 11 -31 25 -15 17 -20 19 -16 8 4 -10 2 -18 -4 -18 -6 0 -3 -7
5 -16 9 -8 16 -21 16 -27 0 -7 -4 -6 -10 3 -7 11 -10 12 -10 2 0 -8 -6 -12
-12 -9 -7 2 -12 12 -10 22 2 10 -1 14 -7 10 -14 -8 -14 11 0 36 6 12 7 28 3
37 -4 9 -6 20 -6 25 1 4 -5 7 -13 7 -9 0 -12 6 -9 15 7 18 -12 20 -20 3 -3 -7
-5 1 -3 19 1 23 -6 38 -26 57 -33 31 -34 31 -40 9 -4 -15 -5 -14 -6 2 0 12 4
26 11 33 9 9 9 12 0 12 -7 0 -15 -7 -18 -15 -5 -11 -10 -13 -19 -5 -6 5 -15 7
-19 3 -4 -4 0 6 8 22 15 29 7 55 -16 55 -6 0 -6 -6 1 -14 13 -16 5 -24 -30
-31 -13 -3 -19 0 -16 8 2 7 12 10 22 9 15 -3 17 -1 7 11 -6 7 -8 18 -4 22 4 5
1 5 -5 1 -9 -5 -13 1 -13 21 0 20 -3 24 -9 14 -7 -11 -10 -9 -14 10 -4 24 -4
24 -6 1 0 -13 -5 -20 -11 -17 -5 3 -10 -1 -10 -9 0 -9 5 -16 11 -16 5 0 7 -5
4 -11 -4 -6 -13 -8 -21 -5 -7 3 -18 -3 -24 -12 -7 -11 -10 -12 -7 -2 2 8 -8
27 -22 43 -14 16 -27 34 -27 40 -1 7 -3 15 -4 20 -1 4 -3 10 -4 15 -2 4 -8 27
-16 52 -7 25 -13 49 -12 53 1 4 -4 15 -13 23 -8 9 -17 27 -21 42 -3 15 -9 35
-15 44 -5 10 -9 25 -9 34 0 9 -6 30 -14 47 -34 79 -59 451 -44 667 l6 95 -34
35 c-26 27 -35 47 -40 85 l-7 50 53 -50 c29 -27 62 -66 75 -85 26 -41 37 -107
21 -133 -9 -14 -7 -21 8 -32 15 -12 17 -19 8 -44 -9 -24 -8 -34 4 -45 9 -9 10
-17 4 -21 -12 -7 -4 -25 11 -25 6 0 7 5 3 12 -5 8 -2 9 12 3 10 -4 27 -7 37
-7 9 0 15 -3 12 -7 -2 -5 -27 -7 -55 -6 -29 1 -50 -2 -50 -8 0 -6 3 -7 7 -4 3
4 12 2 20 -5 10 -8 17 -8 25 0 16 16 28 15 28 -3 0 -8 -6 -15 -13 -15 -7 0
-18 -18 -24 -40 -11 -44 -8 -53 7 -17 7 18 9 19 9 4 1 -16 6 -14 31 11 17 17
30 35 30 41 0 6 5 11 10 11 10 0 14 -14 11 -39 -2 -7 2 -10 8 -6 6 3 11 1 11
-4 0 -19 -5 -26 -14 -23 -5 2 -3 -5 4 -15 8 -10 16 -20 17 -22 1 -2 9 2 17 8
10 8 16 9 21 1 8 -14 72 -40 99 -41 21 0 21 -1 -2 -11 -24 -12 -25 -29 -1 -36
11 -3 11 -1 -1 8 -13 10 -13 11 0 7 8 -2 14 -11 12 -20 -3 -20 39 -33 65 -19
10 5 24 7 31 5 14 -5 12 18 -3 30 -5 5 1 5 14 2 16 -5 21 -4 17 4 -9 14 23 14
98 0 41 -7 78 -7 125 0 36 6 104 12 151 15 47 2 94 7 105 11 20 6 20 6 1 -9
-21 -17 -19 -18 37 -31 21 -4 27 -2 21 6 -4 7 -2 10 6 7 15 -5 21 -46 8 -54
-4 -3 -8 -16 -8 -30 0 -13 -5 -24 -11 -24 -5 0 -7 -5 -3 -12 5 -8 2 -9 -9 -5
-13 5 -18 -1 -23 -21 -3 -15 -10 -36 -16 -47 -37 -66 -39 -70 -23 -73 9 -2 14
-9 13 -15 -1 -7 5 -21 14 -32 47 -56 59 -69 53 -57 -3 6 -2 12 4 12 6 0 14
-12 17 -26 5 -18 11 -23 23 -18 29 12 46 9 43 -6 -6 -26 -6 -44 1 -72 8 -32
-13 -59 -43 -53 -13 2 -20 -2 -20 -11 0 -9 -5 -12 -11 -8 -6 3 -14 2 -18 -5
-4 -6 -20 -12 -35 -13 -21 -2 -26 -6 -22 -22 4 -14 2 -16 -7 -7 -13 13 -31 15
-22 1 9 -15 -17 -49 -33 -42 -11 4 -13 0 -7 -17 3 -12 3 -21 -2 -20 -4 1 -15
1 -23 0 -13 -1 -13 -2 0 -11 13 -8 12 -10 -4 -10 -16 0 -17 -2 -5 -17 12 -15
12 -16 -8 -11 -14 4 -24 1 -27 -9 -8 -21 -7 -35 2 -30 4 3 5 -15 3 -40 -4 -51
-16 -48 -16 4 0 20 -6 38 -12 40 -9 3 -13 -7 -13 -32 0 -33 -2 -37 -22 -32
-16 5 -12 -1 15 -24 22 -18 34 -35 31 -44 -3 -8 2 -22 12 -32 16 -16 17 -16
12 -1 -4 10 -1 19 8 22 9 3 12 1 9 -4 -4 -7 6 -9 28 -7 19 2 42 -2 52 -10 11
-7 27 -11 36 -8 11 4 22 -1 28 -13 7 -14 18 -17 45 -14 28 3 36 1 36 -12 0
-11 10 -16 33 -17 17 0 76 -3 130 -5 69 -3 97 -2 97 7 0 6 7 9 15 5 9 -3 15 0
15 8 0 8 3 22 7 32 5 14 3 16 -12 11 -19 -8 -45 8 -45 28 0 18 28 28 105 39
11 1 28 -1 37 -6 10 -5 19 -4 23 2 3 5 23 10 43 10 52 0 83 10 75 24 -4 6 1 5
10 -2 14 -12 19 -12 32 2 18 17 40 22 30 6 -9 -14 25 0 60 25 54 39 193 61
181 29 -3 -7 1 -18 9 -24 11 -9 20 -7 43 10 28 21 31 21 62 5 17 -9 38 -14 46
-11 8 3 14 0 14 -6 0 -7 4 -7 14 1 11 10 17 8 25 -6 11 -17 11 -17 9 2 -1 11
2 44 6 74 7 45 6 55 -8 63 -20 11 -21 29 -2 22 13 -5 14 -1 7 35 -1 2 -8 -3
-17 -10 -15 -12 -16 -11 -10 8 8 26 -9 63 -29 63 -8 0 -15 5 -15 12 0 6 -3 8
-7 5 -3 -4 -12 -2 -20 4 -8 7 -13 8 -13 1 0 -5 10 -17 23 -26 19 -15 20 -16 2
-10 -52 18 -63 17 -68 -7 -4 -24 -4 -24 -6 -1 0 13 -7 22 -17 22 -13 0 -14 -3
-5 -14 6 -8 10 -20 9 -27 -2 -7 2 -13 9 -14 16 0 29 -15 14 -15 -7 0 -9 -4 -6
-10 3 -5 1 -10 -5 -10 -12 0 -33 48 -25 60 4 6 -16 20 -29 20 -1 0 -1 -18 -1
-40 0 -22 3 -40 8 -40 11 0 25 -42 19 -58 -2 -7 -10 -11 -16 -9 -6 2 -21 0
-33 -4 -15 -6 -23 -5 -23 3 0 6 -9 3 -20 -7 -11 -10 -20 -15 -20 -11 0 3 -11
-1 -25 -10 -28 -19 -34 -17 -40 15 -5 29 -15 42 -25 36 -5 -3 -1 -19 8 -35 19
-33 16 -39 -24 -44 -16 -2 -36 -7 -45 -11 -10 -3 -20 -1 -24 5 -6 9 -10 9 -16
-1 -6 -10 -11 -11 -16 -3 -5 6 -18 16 -30 23 -19 10 -23 9 -23 -4 0 -9 5 -13
10 -10 6 3 10 1 10 -4 0 -6 -5 -11 -11 -11 -16 0 -39 26 -31 36 4 5 -1 2 -10
-5 -15 -11 -18 -11 -18 0 0 11 -2 11 -10 -1 -9 -13 -11 -13 -19 -1 -8 12 -12
12 -24 3 -12 -10 -18 -10 -30 2 -8 8 -17 13 -20 10 -3 -4 -16 1 -29 10 -12 9
-35 16 -50 16 -18 0 -29 6 -33 21 -9 27 0 34 49 38 5 1 3 7 -3 15 -6 7 -9 22
-5 32 5 15 4 16 -5 4 -9 -12 -11 -12 -16 3 -4 9 -5 37 -4 61 2 24 2 43 -1 41
-3 -1 -20 5 -38 15 l-34 18 26 17 c16 11 23 22 19 32 -5 12 -3 14 7 8 21 -13
73 -12 88 3 7 6 25 12 39 12 15 0 24 3 20 6 -3 3 -2 17 3 30 16 41 4 50 -62
52 -34 1 -64 5 -67 10 -3 5 -23 17 -43 27 -21 9 -38 20 -38 24 0 4 -44 7 -97
6 -54 -1 -93 0 -87 2 17 6 5 41 -15 46 -14 4 -14 5 2 6 9 0 17 7 17 14 0 8 4
7 10 -3 5 -8 10 -10 10 -3 0 6 9 9 20 6 11 -3 20 0 20 6 0 6 -4 11 -10 11 -5
0 -10 5 -10 11 0 6 7 9 15 5 10 -4 15 1 15 14 0 21 33 60 50 60 6 0 10 -14 10
-31 0 -16 4 -28 9 -25 5 3 14 -1 21 -9 7 -8 9 -15 5 -15 -4 0 -2 -7 5 -15 9
-11 10 -18 1 -29 -9 -10 -3 -10 23 3 18 9 32 19 30 23 -3 4 3 11 12 16 14 8
16 18 10 48 -10 60 -14 114 -7 114 3 0 7 18 8 40 2 23 -2 40 -8 40 -6 0 -9 7
-5 15 8 22 -20 19 -45 -6 -19 -19 -21 -19 -17 -2 1 10 20 26 41 36 20 10 37
24 36 30 0 8 -2 8 -6 0 -7 -19 -26 -16 -45 6 -17 20 -13 88 11 226 6 33 11 61
11 61 0 2 77 21 106 27 11 2 42 1 67 -3 25 -4 44 -3 41 1 -5 9 15 23 22 16 3
-3 9 -31 14 -64 5 -41 22 -85 55 -143 43 -77 52 -98 54 -123 1 -5 6 -5 11 -2
6 3 10 2 10 -4 0 -6 15 -18 33 -27 81 -42 198 -54 334 -34 38 6 115 17 173 25
57 9 109 20 114 25 4 4 14 6 21 4 7 -3 16 -1 20 5 3 6 12 11 20 11 31 0 129
44 161 73 55 48 66 78 73 206 l6 116 28 3 c34 4 37 34 5 56 -25 18 -53 21 -43
6 10 -16 -11 -12 -25 5 -11 13 -7 15 24 15 20 0 36 5 36 10 0 6 -5 10 -12 10
-6 0 -9 2 -7 5 3 2 20 1 37 -4 29 -9 48 2 20 11 -14 5 77 58 99 58 8 0 11 5 7
11 -4 7 -1 10 7 7 8 -3 42 14 76 38 34 24 66 44 71 44 11 0 9 34 -3 63 -6 15
-10 16 -17 5 -6 -8 -8 -1 -4 22 6 32 4 35 -19 35 -17 0 -25 -5 -25 -18 0 -10
-5 -27 -10 -38 -6 -11 -7 -19 -1 -19 5 0 11 -7 14 -14 4 -10 1 -13 -7 -10 -13
5 -46 -50 -46 -75 0 -6 -3 -10 -7 -9 -5 1 -29 -7 -55 -19 -25 -12 -56 -24 -67
-28 -12 -3 -21 -10 -21 -15 0 -5 -7 -7 -15 -4 -8 4 -15 1 -15 -5 0 -9 -5 -9
-21 -1 -11 7 -23 9 -26 6 -3 -2 -15 -1 -28 4 -17 6 -25 5 -29 -5 -3 -8 -1 -17
4 -20 17 -11 11 -24 -9 -20 -17 3 -19 0 -11 -20 8 -21 6 -23 -12 -20 -29 6
-33 12 -19 29 9 11 9 15 -1 18 -18 6 -48 -2 -48 -13 0 -5 8 -9 18 -10 11 0 12
-2 4 -6 -18 -7 -42 15 -35 33 3 10 -2 14 -18 14 -14 0 -19 3 -13 8 7 4 -16 8
-50 9 -92 3 -186 14 -186 21 0 4 74 7 164 7 155 0 164 -1 149 -17 -9 -10 -20
-15 -24 -12 -5 3 -6 -2 -3 -10 5 -13 11 -11 38 9 18 14 36 22 40 18 4 -4 9 3
13 15 3 12 12 22 20 22 8 0 12 4 9 9 -3 5 -16 7 -28 3 -14 -3 -19 -2 -14 6 4
8 -4 16 -21 23 -26 10 -27 12 -8 19 11 5 18 9 15 10 -26 8 -40 6 -40 -3 0 -7
-6 -1 -13 13 -10 19 -22 26 -52 28 -29 3 -35 6 -24 13 10 7 1 8 -29 5 -24 -3
-41 -2 -38 3 12 18 -77 44 -117 34 -25 -6 -11 -23 21 -24 15 0 21 -3 14 -6 -6
-2 -10 -9 -6 -14 3 -5 -2 -9 -10 -9 -9 0 -16 5 -16 11 0 6 -9 8 -20 4 -11 -3
-20 -3 -20 2 0 4 -11 9 -25 9 -14 1 -23 -2 -20 -6 2 -4 -7 -7 -20 -7 -14 0
-25 3 -25 8 0 5 -7 6 -16 2 -8 -3 -13 -11 -10 -18 6 -16 -55 -15 -67 0 -6 6
-10 6 -14 -2 -2 -7 -21 -13 -41 -13 -20 0 -55 -7 -77 -14 -22 -8 -41 -10 -43
-5 -7 19 -59 -20 -99 -75 -17 -22 -23 -25 -23 -12 0 9 -4 14 -10 11 -5 -3 -10
-1 -10 5 0 6 -5 8 -11 4 -6 -3 -9 -14 -6 -24 3 -13 0 -17 -9 -13 -9 3 -14 -2
-14 -13 0 -16 -2 -17 -10 -4 -6 10 -10 11 -10 3 0 -7 -7 -13 -15 -13 -8 0 -15
-7 -15 -16 0 -8 -4 -12 -10 -9 -5 3 -10 3 -11 -2 0 -4 -2 -18 -5 -31 -4 -20
-1 -22 18 -16 22 6 21 5 -3 -17 -15 -13 -30 -34 -34 -46 -5 -19 -14 -23 -44
-23 -22 0 -44 -6 -51 -15 -8 -10 -17 -12 -24 -6 -14 11 -143 16 -167 6 -10 -3
-20 -2 -24 4 -3 6 0 9 8 5 17 -6 31 22 15 32 -7 5 -8 2 -3 -7 5 -10 5 -11 -3
-4 -6 6 -12 21 -14 35 -2 14 -14 30 -28 37 -14 7 -18 13 -10 13 13 0 13 1 0
10 -8 5 -23 7 -32 4 -10 -3 -18 -1 -18 5 0 6 6 11 13 11 7 1 4 6 -6 15 -11 7
-25 11 -33 8 -8 -3 -14 0 -14 5 0 6 -9 14 -20 17 -11 4 -18 10 -16 14 3 4 -1
8 -9 8 -8 0 -15 -5 -15 -10 0 -5 -7 -4 -15 3 -12 10 -13 16 -4 26 14 17 9 17
-27 4 -20 -8 -32 -7 -50 5 -13 8 -30 15 -39 15 -9 0 -14 4 -11 9 7 11 -85 -6
-98 -19 -16 -16 -26 -12 -26 11 0 16 -4 19 -22 14 -22 -6 -22 -6 -4 9 23 18
14 21 -16 5 -15 -8 -22 -8 -28 1 -6 9 -26 11 -74 5 -44 -4 -64 -10 -59 -18 4
-7 0 -8 -11 -4 -10 4 -20 7 -22 7 -3 0 -2 5 1 10 3 6 15 10 26 10 10 0 19 4
19 9 0 15 -33 22 -41 9 -4 -7 -12 -9 -16 -4 -4 5 -2 11 5 13 19 7 14 23 -8 23
-11 0 -23 -6 -26 -13 -3 -8 -19 -13 -37 -13 -18 0 -43 -3 -56 -8 -16 -6 -21
-5 -17 3 4 6 2 11 -3 11 -6 0 -11 -7 -11 -16 0 -8 -4 -13 -9 -9 -5 3 -12 1
-16 -5 -3 -5 -11 -10 -16 -10 -6 0 -7 5 -4 10 9 14 -1 12 -37 -6 -16 -9 -27
-11 -24 -6 4 6 2 13 -4 17 -5 3 -10 14 -10 25 0 10 -7 21 -15 24 -12 4 -15 17
-13 51 3 50 5 52 23 28 11 -15 13 -8 10 44 -2 44 1 63 10 67 15 5 28 -33 16
-48 -4 -6 -5 -22 -2 -35 l6 -24 24 25 c14 14 25 35 26 47 2 23 -10 29 -18 9
-4 -10 -8 -9 -16 2 -14 20 -14 31 2 29 35 -4 47 2 47 26 0 31 -31 34 -60 5
-11 -11 -27 -20 -36 -20 -12 0 -9 7 12 28 16 15 37 26 47 23 23 -5 22 4 -5 30
-18 17 -19 21 -5 16 9 -4 24 -4 32 -1 17 7 21 34 4 34 -5 0 -8 4 -5 9 11 17
15 82 6 76 -6 -4 -10 3 -10 14 0 23 -19 28 -38 9 -9 -9 -12 -9 -12 3 0 22 17
42 29 35 6 -4 11 -1 11 8 0 8 3 23 6 33 6 15 4 16 -7 6 -21 -20 -30 -15 -23
12 4 18 1 27 -10 31 -9 3 -13 10 -10 15 3 5 -3 8 -13 7 -34 -3 -53 2 -53 13 0
6 9 9 20 6 22 -6 26 3 9 20 -6 6 -18 9 -25 6 -8 -3 -14 -1 -14 5 0 5 9 12 20
15 11 3 20 1 20 -4 0 -5 7 -9 16 -9 11 0 9 6 -8 23 l-24 22 23 21 c12 12 24
19 27 16 3 -3 6 0 6 7 0 7 5 9 13 5 9 -6 9 -5 0 8 -11 12 -9 18 7 33 11 10 20
13 20 7 0 -7 7 -9 17 -5 11 4 14 3 9 -6 -4 -6 -2 -19 6 -28 11 -14 10 -16 -9
-11 -16 4 -20 2 -16 -8 7 -18 27 -18 42 0 9 11 9 16 0 22 -9 5 -7 10 7 15 18
7 18 8 -1 9 -16 1 -15 4 10 17 35 19 117 25 127 9 5 -8 8 -7 8 2 0 6 8 12 18
12 14 0 15 2 2 10 -12 8 -11 10 6 10 11 0 24 4 30 8 5 5 20 6 34 1 25 -7 24
-7 -5 -9 -26 -2 -24 -3 15 -11 30 -6 46 -5 51 2 4 7 24 10 48 7 22 -2 41 0 41
5 0 5 11 7 25 5 14 -3 28 -1 31 4 3 5 12 1 20 -9 7 -10 14 -15 14 -11 0 4 12
3 26 -2 18 -7 23 -7 18 1 -4 7 -1 10 7 7 8 -3 20 1 27 9 11 11 18 10 42 -2 18
-9 31 -11 35 -5 3 6 -3 10 -15 10 -12 0 -18 4 -15 11 4 6 14 8 22 5 23 -9 46
13 32 30 -13 15 -44 20 -35 5 3 -5 -1 -11 -9 -15 -22 -8 -18 17 4 31 16 10 22
8 42 -13 23 -24 59 -33 59 -14 0 6 -10 15 -22 20 l-23 9 23 0 c12 1 22 -4 22
-10 0 -8 6 -7 17 2 14 12 16 12 8 0 -6 -11 -3 -13 13 -9 12 4 22 2 22 -2 0 -5
13 -5 29 0 16 4 32 6 35 2 10 -9 66 -9 66 1 0 5 9 7 20 4 11 -3 18 -1 15 3 -3
5 -1 11 5 15 5 3 10 -1 10 -10 0 -9 5 -13 10 -10 6 3 10 15 10 27 0 17 2 18
15 8 8 -7 15 -8 15 -2 0 5 9 12 20 15 11 3 18 2 16 -2 -2 -3 7 -11 20 -18 28
-13 39 -1 24 27 -10 18 -9 19 14 10 16 -6 27 -6 31 0 9 14 21 12 39 -6 15 -14
17 -14 22 1 6 13 8 14 15 3 6 -9 9 -7 9 10 0 25 15 29 36 7 18 -17 24 -18 43
-6 10 6 10 13 2 29 -9 16 -7 21 9 25 11 3 20 0 20 -6 0 -6 3 -7 7 -4 3 4 12 2
20 -4 10 -9 13 -8 14 2 1 8 5 -2 8 -21 4 -20 12 -34 19 -33 7 2 12 -2 12 -8 0
-5 4 -8 10 -4 5 3 7 12 3 20 -3 9 0 22 7 30 7 8 8 15 3 15 -10 0 -43 90 -43
116 0 7 -9 30 -21 51 -12 22 -14 30 -5 18 9 -11 25 -30 36 -42 10 -12 16 -24
13 -27 -4 -3 -1 -6 5 -6 6 0 10 -8 10 -17 -1 -26 42 -133 53 -133 5 0 2 14 -6
31 -15 28 -15 34 0 65 15 33 15 37 0 61 -15 23 -16 25 -2 20 9 -3 19 -2 22 3
11 17 45 6 46 -15 0 -16 3 -14 11 8 8 22 13 26 24 16 15 -12 9 -33 -7 -24 -5
4 -9 2 -9 -3 0 -13 29 -24 42 -16 5 3 7 16 4 28 -5 19 -4 19 8 4 17 -23 36 -5
37 37 0 16 3 24 6 18 4 -10 10 -10 26 2 12 8 26 15 32 15 5 0 4 -4 -2 -8 -10
-6 -9 -13 3 -31 12 -17 19 -20 24 -10 11 16 50 22 50 8 0 -13 29 -38 44 -39 5
0 2 7 -5 17 -13 15 -12 15 18 0 32 -17 52 -37 36 -37 -5 0 -15 6 -21 12 -10
10 -15 10 -22 -1 -6 -11 -12 -12 -22 -4 -10 9 -45 11 -67 4 -3 0 6 -12 19 -26
13 -14 25 -35 27 -46 3 -18 1 -18 -20 5 -16 17 -27 22 -37 16 -11 -7 -11 -11
-1 -24 15 -18 5 -40 -15 -32 -7 3 -18 -4 -24 -14 -12 -23 -8 -25 20 -8 16 10
23 8 46 -17 16 -17 32 -29 38 -27 5 2 20 1 33 -3 19 -4 22 -10 17 -38 -4 -30
-4 -30 6 -7 9 19 13 22 20 10 5 -8 6 -18 4 -22 -3 -4 2 -8 11 -8 8 0 18 -7 21
-15 5 -12 9 -13 21 -4 9 8 10 14 3 19 -7 4 -8 14 -1 31 10 24 10 24 10 2 1
-13 5 -23 10 -23 13 0 21 27 15 45 -4 8 -1 15 5 15 6 0 11 -9 11 -21 0 -12 4
-17 11 -14 6 4 8 13 5 21 -10 26 9 15 27 -16 12 -20 23 -27 34 -23 11 4 14 2
11 -8 -2 -7 4 -22 13 -33 10 -10 16 -23 13 -27 -2 -4 1 -11 7 -15 7 -4 9 -3 5
4 -3 6 -2 13 2 16 5 3 9 -4 8 -16 -1 -22 43 -77 56 -70 4 1 5 -10 2 -26 -4
-22 -2 -31 11 -36 9 -3 22 -3 28 1 22 14 49 14 40 1 -15 -25 -1 -68 21 -68 12
0 5 29 -10 44 -8 9 -12 16 -7 16 5 0 28 -21 52 -46 23 -25 45 -44 47 -42 9 10
-23 58 -38 58 -11 0 -18 7 -18 18 0 13 2 14 9 4 4 -7 14 -12 22 -10 7 2 15 -6
17 -17 1 -12 16 -36 32 -55 29 -34 30 -34 45 -15 8 11 15 16 14 10 -3 -25 2
-46 10 -40 5 3 12 1 16 -5 3 -5 1 -10 -5 -10 -7 0 -8 -6 0 -19 13 -26 13 -51
-1 -51 -6 0 -9 7 -5 15 7 18 4 18 -28 4 -29 -14 -24 -33 6 -23 17 5 19 3 13
-15 -3 -12 -2 -21 3 -21 5 0 12 9 15 20 7 26 37 26 37 1 0 -11 5 -23 10 -26
13 -8 13 -35 -1 -35 -5 0 -7 6 -3 13 5 7 1 6 -10 -3 -17 -13 -17 -14 1 -21 10
-3 24 -4 31 -2 8 4 12 -6 12 -28 1 -32 1 -33 15 -15 18 23 19 17 5 -19 -9 -23
-13 -25 -25 -15 -13 10 -15 9 -15 -11 0 -13 6 -36 14 -51 13 -24 12 -31 -4
-63 -16 -31 -16 -37 -4 -42 9 -3 12 -13 9 -23 -3 -10 -1 -21 5 -25 6 -4 10 7
11 27 0 32 1 32 10 8 6 -14 8 -40 5 -57 -4 -27 -1 -33 13 -33 14 0 20 10 24
42 3 25 1 45 -5 49 -7 4 -7 9 1 13 14 9 14 53 1 61 -6 4 -7 11 -4 17 4 5 0 21
-7 35 -10 18 -10 26 -2 31 13 8 0 87 -18 108 -5 6 -9 22 -8 35 0 29 -18 117
-30 144 -10 21 -38 134 -51 200 -4 22 -15 57 -24 77 -9 21 -16 45 -16 54 0 27
-91 204 -111 217 -11 7 -19 19 -19 27 0 9 -7 26 -16 38 -8 12 -12 22 -9 22 6
0 -6 16 -37 51 -10 10 -15 19 -12 19 3 0 -2 10 -10 22 -9 12 -16 30 -16 40 0
10 -4 18 -10 18 -5 0 -10 7 -10 15 0 7 -6 18 -14 22 -7 4 -28 31 -46 58 -51
77 -269 289 -328 319 -35 18 -65 44 -94 82 -23 31 -62 71 -86 90 -40 30 -52
34 -106 34 -34 0 -72 -6 -86 -13 -17 -9 -40 -11 -74 -5 -28 4 -59 5 -70 2 -12
-3 -30 1 -40 9 -14 11 -30 12 -65 5 -73 -15 -76 -15 -75 9 0 22 -19 25 -60 8
-15 -6 -26 -1 -46 22 -22 25 -34 30 -60 27 -23 -3 -36 2 -49 17 -16 19 -18 20
-31 4z m224 -91 c4 -10 1 -14 -6 -12 -15 5 -23 28 -10 28 5 0 13 -7 16 -16z
m166 -34 c0 -5 -2 -10 -4 -10 -3 0 -8 5 -11 10 -3 6 -1 10 4 10 6 0 11 -4 11
-10z m371 -20 c18 -15 20 -19 8 -20 -9 0 -24 9 -34 20 -23 26 -4 26 26 0z
m174 -369 c3 -5 1 -12 -5 -16 -5 -3 -10 1 -10 9 0 18 6 21 15 7z m-2011 -147
c4 -10 1 -14 -6 -12 -15 5 -23 28 -10 28 5 0 13 -7 16 -16z m1053 -36 c-3 -8
-6 -5 -6 6 -1 11 2 17 5 13 3 -3 4 -12 1 -19z m1411 -144 c-4 -3 -12 5 -18 18
-12 22 -12 22 6 6 10 -10 15 -20 12 -24z m-358 -64 c0 -5 -2 -10 -4 -10 -3 0
-8 5 -11 10 -3 6 -1 10 4 10 6 0 11 -4 11 -10z m-637 -38 c2 7 8 10 12 6 4 -4
1 -14 -7 -22 -12 -11 -18 -12 -27 -3 -16 16 -14 32 3 18 11 -9 15 -9 19 1z
m205 -27 c-1 -14 -6 -25 -11 -25 -5 0 -6 7 -3 16 3 9 6 20 6 25 0 5 2 9 5 9 3
0 4 -11 3 -25z m391 -4 c-15 -5 -22 6 -14 19 6 9 10 9 16 -1 5 -8 4 -15 -2
-18z m-566 2 c-21 -8 -15 -22 7 -16 11 3 20 10 20 15 0 6 7 5 15 -2 8 -7 15
-20 15 -30 0 -24 -44 -23 -66 1 -17 18 -12 40 9 38 9 0 9 -2 0 -6z m-20 -68
c-3 -9 -8 -14 -10 -11 -3 3 -2 9 2 15 9 16 15 13 8 -4z m583 -53 c-9 -8 -26
10 -26 26 1 15 2 15 15 -2 8 -11 13 -21 11 -24z m461 16 c-3 -8 -6 -5 -6 6 -1
11 2 17 5 13 3 -3 4 -12 1 -19z m-1227 -48 c0 -5 -2 -10 -4 -10 -3 0 -8 5 -11
10 -3 6 -1 10 4 10 6 0 11 -4 11 -10z m830 -16 c0 -8 -4 -14 -9 -14 -11 0 -22
26 -14 34 9 9 23 -3 23 -20z m-1333 -10 c-3 -3 -12 -4 -19 -1 -8 3 -5 6 6 6
11 1 17 -2 13 -5z m1623 -68 c0 -3 -4 -8 -10 -11 -5 -3 -10 -1 -10 4 0 6 5 11
10 11 6 0 10 -2 10 -4z m-16 -56 c-6 -6 -10 -3 -10 10 0 13 4 16 10 10 7 -7 7
-13 0 -20z m135 -25 c0 -5 -6 -1 -14 9 -8 11 -15 24 -15 30 0 5 7 1 15 -10 8
-10 14 -23 14 -29z m-89 -5 c0 -5 -2 -10 -4 -10 -3 0 -8 5 -11 10 -3 6 -1 10
4 10 6 0 11 -4 11 -10z m50 -10 c0 -5 -7 -10 -16 -10 -8 0 -12 5 -9 10 3 6 10
10 16 10 5 0 9 -4 9 -10z m60 -10 c0 -5 -4 -10 -10 -10 -5 0 -10 5 -10 10 0 6
5 10 10 10 6 0 10 -4 10 -10z m-50 -20 c0 -5 -2 -10 -4 -10 -3 0 -8 5 -11 10
-3 6 -1 10 4 10 6 0 11 -4 11 -10z m124 -15 c-6 -16 -24 -21 -24 -7 0 11 11
22 21 22 5 0 6 -7 3 -15z m10 -70 c-7 -18 -14 -18 -34 -4 -13 9 -12 10 2 5 10
-3 20 -1 23 4 9 15 15 12 9 -5z m116 -121 c0 -8 -4 -12 -10 -9 -5 3 -10 13
-10 21 0 8 5 12 10 9 6 -3 10 -13 10 -21z m-2643 -16 c-3 -8 -6 -5 -6 6 -1 11
2 17 5 13 3 -3 4 -12 1 -19z m-77 -64 c-6 -6 -7 -15 -3 -20 4 -5 2 -4 -6 2 -8
8 -10 20 -6 34 5 17 9 19 16 9 4 -7 4 -18 -1 -25z m36 1 c-8 -8 -17 -15 -20
-15 -3 0 -3 7 0 15 4 8 13 15 21 15 12 0 12 -2 -1 -15z m-26 -179 c0 -2 -7 -7
-16 -10 -8 -3 -12 -2 -9 4 6 10 25 14 25 6z m35 -15 c-6 -5 -21 -12 -35 -16
-24 -7 -24 -7 -5 9 21 16 56 23 40 7z m85 -21 c0 -5 -4 -10 -10 -10 -5 0 -10
5 -10 10 0 6 5 10 10 10 6 0 10 -4 10 -10z m-160 -80 c0 -5 -4 -10 -10 -10 -5
0 -10 5 -10 10 0 6 5 10 10 10 6 0 10 -4 10 -10z m145 0 c3 -5 1 -10 -4 -10
-6 0 -11 5 -11 10 0 6 2 10 4 10 3 0 8 -4 11 -10z m-135 -30 c0 -5 -2 -10 -4
-10 -3 0 -8 5 -11 10 -3 6 -1 10 4 10 6 0 11 -4 11 -10z m-35 -20 c-3 -5 1
-10 9 -10 16 0 21 -12 9 -23 -9 -9 -33 12 -33 29 0 8 5 14 11 14 5 0 7 -4 4
-10z m2765 -45 c0 -8 -4 -15 -10 -15 -5 0 -10 7 -10 15 0 8 5 15 10 15 6 0 10
-7 10 -15z m-2752 -28 c4 -30 18 -36 25 -9 3 12 5 11 6 -6 1 -16 -6 -26 -20
-29 -14 -4 -19 -12 -16 -24 3 -11 0 -16 -8 -12 -10 3 -12 -4 -9 -26 3 -18 1
-31 -5 -31 -6 0 -8 -7 -4 -16 6 -16 7 -16 18 0 16 21 26 20 22 -1 -4 -25 -17
-44 -26 -38 -5 2 -13 -7 -19 -20 -7 -14 -16 -25 -22 -25 -6 0 -9 -4 -6 -9 3
-5 -1 -14 -9 -21 -8 -7 -15 -18 -15 -24 0 -7 -15 -12 -37 -11 -31 0 -39 5 -49
30 -27 64 -3 255 32 255 8 0 18 9 24 19 6 13 24 21 48 24 60 6 67 4 70 -26z
m2752 -7 c0 -5 -4 -10 -10 -10 -5 0 -10 5 -10 10 0 6 5 10 10 10 6 0 10 -4 10
-10z m-2726 -65 c3 -8 1 -15 -3 -15 -5 0 -11 7 -15 15 -3 8 -1 15 3 15 5 0 11
-7 15 -15z m66 -25 c0 -10 -3 -21 -7 -23 -5 -3 -8 8 -8 23 0 15 3 26 8 23 4
-2 7 -13 7 -23z m75 11 c6 -11 -33 -26 -42 -17 -4 3 1 6 11 6 9 0 14 5 11 10
-3 6 -2 10 4 10 5 0 12 -4 16 -9z m-145 -21 c0 -5 -4 -10 -10 -10 -5 0 -10 5
-10 10 0 6 5 10 10 10 6 0 10 -4 10 -10z m75 -50 c-3 -5 -12 -10 -18 -10 -7 0
-6 4 3 10 19 12 23 12 15 0z m-60 -9 c3 -5 2 -12 -3 -15 -5 -3 -9 1 -9 9 0 17
3 19 12 6z m1979 -25 c15 -8 44 -12 69 -9 29 3 38 1 28 -6 -13 -8 -13 -12 -1
-26 12 -14 12 -18 -1 -25 -10 -7 -15 -5 -17 6 -2 9 -10 13 -18 10 -7 -3 -16
-1 -20 5 -4 6 -13 4 -25 -7 -20 -18 -41 -22 -137 -25 -63 -2 -77 7 -34 22 17
6 33 17 36 25 4 10 13 13 26 9 30 -9 45 4 23 21 -16 12 -15 13 13 14 18 0 44
-6 58 -14z m-2009 -27 c-2 -33 -55 -66 -55 -35 0 9 7 12 20 9 11 -3 20 0 20 6
0 6 -4 11 -10 11 -17 0 -11 18 8 23 9 3 17 5 18 6 0 0 0 -9 -1 -20z m2180 11
c-3 -5 -12 -10 -18 -10 -7 0 -6 4 3 10 19 12 23 12 15 0z m242 3 c-4 -3 -1
-11 6 -17 7 -6 10 -10 8 -8 -2 1 -14 -6 -25 -15 -12 -10 -15 -11 -9 -3 10 11
9 17 -4 32 -15 17 -15 18 7 18 13 0 20 -3 17 -7z m-178 -17 c9 -11 7 -15 -11
-21 -43 -13 -57 -15 -63 -5 -7 11 29 32 39 23 3 -3 6 -1 6 5 0 16 15 15 29 -2z
m-604 -6 c3 -6 -1 -7 -9 -4 -18 7 -21 14 -7 14 6 0 13 -4 16 -10z m505 -8 c0
-12 -3 -12 -15 -2 -8 7 -15 13 -15 15 0 1 7 2 15 2 8 0 15 -7 15 -15z m-450
-42 c0 -5 -7 -10 -15 -10 -8 0 -15 5 -15 10 0 6 7 10 15 10 8 0 15 -4 15 -10z
m-70 -15 c0 -17 -28 -33 -53 -30 -10 2 -17 -2 -16 -8 4 -30 -2 -38 -21 -32
-11 4 -20 2 -20 -4 0 -6 -6 -11 -14 -11 -8 0 -17 -7 -20 -16 -3 -8 -2 -13 2
-10 4 2 14 1 22 -4 8 -5 22 -4 32 1 16 9 18 7 12 -15 -6 -25 6 -33 40 -27 4 1
14 -3 21 -9 10 -8 14 -7 18 2 4 9 6 9 6 1 1 -6 -3 -15 -9 -18 -5 -3 -10 -11
-10 -16 0 -6 5 -7 10 -4 6 3 10 0 10 -8 0 -13 18 -23 73 -41 10 -3 17 0 17 7
0 7 4 6 10 -3 8 -13 13 -13 30 -2 12 7 30 10 41 7 31 -10 69 2 63 20 -4 8 -10
12 -16 9 -11 -7 -39 27 -32 38 3 5 17 8 31 8 14 0 32 8 40 18 14 16 14 16 9 0
-6 -22 -4 -22 37 -5 18 8 38 12 45 10 6 -3 12 0 12 6 0 6 11 11 23 11 13 0 27
3 31 7 10 10 43 14 115 15 42 0 69 5 79 14 7 8 18 11 24 8 6 -4 6 1 -1 14 -6
11 -8 27 -5 35 3 10 -2 17 -13 20 -10 2 1 3 25 2 23 -1 42 1 42 5 0 4 11 10
25 12 14 3 25 1 25 -3 0 -5 9 -4 20 3 27 17 35 4 50 -78 14 -71 6 -167 -17
-223 -17 -42 -51 -81 -70 -81 -7 0 -13 -5 -13 -12 0 -6 -3 -8 -7 -5 -3 4 -16
1 -27 -6 -66 -41 -242 -82 -397 -92 -52 -3 -121 -8 -154 -10 -95 -7 -181 8
-210 35 -36 34 -93 149 -78 158 8 5 9 13 3 22 -15 24 -11 37 5 16 19 -25 19
-15 1 29 -8 19 -22 35 -30 35 -9 0 -16 7 -16 15 0 8 -5 15 -10 15 -11 0 -31
43 -33 73 -1 9 -7 17 -14 17 -7 0 -13 5 -13 10 0 6 8 10 18 10 9 0 22 10 27
22 6 12 25 28 43 35 19 8 31 10 28 5 -2 -4 13 -8 35 -9 21 0 39 4 39 9 0 6 8
4 17 -3 15 -12 16 -12 10 4 -5 14 -1 17 23 17 20 0 30 -5 30 -15z m416 -68 c8
-7 -55 -40 -84 -43 -19 -2 -22 1 -16 19 3 12 11 27 16 34 5 7 7 17 3 22 -6 10
69 -20 81 -32z m-1446 10 c11 3 20 0 20 -6 0 -6 -4 -12 -10 -12 -14 -2 -29 -6
-32 -9 -3 -2 -20 -4 -123 -13 -43 -4 -50 -4 -25 2 24 6 28 9 13 10 -13 0 -23
7 -23 15 0 9 10 13 32 11 18 -1 44 1 59 5 19 6 31 3 42 -8 15 -14 15 -13 11 9
-4 20 -4 21 5 7 7 -10 19 -14 31 -11z m426 7 c18 -14 18 -14 -6 -3 -31 14 -36
19 -24 19 6 0 19 -7 30 -16z m-376 -4 c0 -5 -5 -10 -11 -10 -5 0 -7 5 -4 10 3
6 8 10 11 10 2 0 4 -4 4 -10z m1110 -42 c0 -11 -53 7 -57 19 -6 18 31 20 44 3
7 -8 13 -18 13 -22z m-750 1 c0 -5 -6 -9 -13 -9 -8 0 -14 6 -14 14 0 8 6 12
14 9 7 -3 13 -9 13 -14z m-277 -56 l32 -16 -30 -13 c-41 -18 -58 -17 -51 2 3
9 6 22 6 30 0 18 4 18 43 -3z m1147 7 c0 -5 -4 -10 -10 -10 -5 0 -10 5 -10 10
0 6 5 10 10 10 6 0 10 -4 10 -10z m-1392 -57 l26 -28 -25 -3 c-14 -2 -38 2
-53 8 l-28 10 24 20 c29 25 26 25 56 -7z m-459 -24 c-9 -5 -8 -16 3 -46 14
-38 14 -73 -1 -73 -9 0 -21 73 -21 123 0 25 2 28 15 17 12 -10 13 -15 4 -21z
m-279 -20 c0 -5 -4 -9 -10 -9 -5 0 -10 7 -10 16 0 8 5 12 10 9 6 -3 10 -10 10
-16z m966 6 c-18 -18 -32 -19 -42 -3 -4 6 -3 8 2 5 6 -3 16 -2 24 4 23 14 33
11 16 -6z m-79 -42 c-9 -9 -19 -14 -22 -11 -3 3 2 13 11 22 9 9 19 14 22 11 3
-3 -2 -13 -11 -22z m-60 -35 c-3 -8 -6 -5 -6 6 -1 11 2 17 5 13 3 -3 4 -12 1
-19z m-17 2 c0 -5 -4 -10 -10 -10 -5 0 -10 5 -10 10 0 6 5 10 10 10 6 0 10 -4
10 -10z m-389 -100 c11 0 18 -3 16 -7 -3 -5 1 -14 9 -21 8 -7 14 -10 14 -7 0
3 11 -2 24 -11 14 -8 22 -22 20 -29 -3 -8 4 -24 15 -36 12 -13 21 -30 22 -38
0 -9 4 -6 10 8 5 13 7 33 4 45 -4 13 -3 16 2 9 5 -7 17 -10 28 -8 11 2 23 4
26 4 4 1 9 10 12 22 3 12 10 18 16 14 7 -4 11 5 12 22 1 17 3 21 6 11 6 -26
32 -22 38 5 5 20 11 22 48 19 28 -2 38 0 28 6 -16 12 -6 19 47 30 39 9 41 8
32 -9 -10 -18 -9 -18 20 -1 16 9 30 21 30 25 0 4 9 3 20 -3 14 -8 20 -8 20 0
0 8 6 8 20 0 15 -8 20 -8 18 1 -2 6 6 15 18 19 16 6 21 4 21 -8 0 -10 -5 -20
-10 -24 -6 -3 -11 -18 -13 -32 l-3 -25 22 19 c25 24 41 26 33 4 -5 -13 -2 -15
14 -11 24 6 34 -6 25 -33 -4 -11 -12 -17 -21 -13 -16 6 -17 2 -8 -21 3 -9 10
-14 14 -11 5 3 12 0 16 -6 4 -8 3 -9 -4 -5 -8 5 -11 0 -8 -16 2 -15 9 -22 20
-20 9 2 16 -1 16 -6 0 -17 -243 -51 -371 -51 -97 -1 -151 7 -143 21 3 5 -16 6
-47 2 -51 -7 -53 -6 -36 11 25 25 15 29 -22 8 -25 -14 -33 -15 -39 -5 -5 7
-16 10 -25 6 -9 -3 -17 -2 -17 4 0 6 -8 8 -18 5 -20 -5 -82 48 -82 70 0 7 -7
25 -15 40 -8 15 -12 34 -8 42 3 8 0 15 -6 15 -8 0 -9 5 -2 19 8 14 20 18 51
17 22 -1 38 0 35 2 -2 2 2 10 8 17 9 10 14 3 20 -36 7 -39 12 -49 28 -49z
m919 -40 c0 -5 -2 -10 -4 -10 -3 0 -8 5 -11 10 -3 6 -1 10 4 10 6 0 11 -4 11
-10z m-1100 -17 c-1 -18 -19 -35 -29 -28 -9 5 -7 11 6 21 21 16 23 16 23 7z
m310 -3 c0 -5 -5 -10 -11 -10 -5 0 -7 5 -4 10 3 6 8 10 11 10 2 0 4 -4 4 -10z
m45 -10 c3 -5 2 -10 -4 -10 -5 0 -13 5 -16 10 -3 6 -2 10 4 10 5 0 13 -4 16
-10z m550 -60 c3 -5 1 -10 -4 -10 -6 0 -11 5 -11 10 0 6 2 10 4 10 3 0 8 -4
11 -10z m205 -20 c0 -5 -4 -10 -10 -10 -5 0 -10 5 -10 10 0 6 5 10 10 10 6 0
10 -4 10 -10z m-832 -65 c-3 -3 -9 2 -12 12 -6 14 -5 15 5 6 7 -7 10 -15 7
-18z m812 13 c-1 -2 -7 -25 -14 -52 -11 -44 -14 -47 -18 -23 -3 15 -1 27 3 27
5 0 8 3 8 8 -4 21 2 42 11 42 6 0 10 -1 10 -2z m45 -18 c3 -5 -1 -10 -9 -10
-9 0 -16 5 -16 10 0 6 4 10 9 10 6 0 13 -4 16 -10z m-37 -65 c-3 -3 -9 2 -12
12 -6 14 -5 15 5 6 7 -7 10 -15 7 -18z m2 -35 c0 -5 -2 -10 -4 -10 -3 0 -8 5
-11 10 -3 6 -1 10 4 10 6 0 11 -4 11 -10z m-183 -272 c-3 -8 -6 -5 -6 6 -1 11
2 17 5 13 3 -3 4 -12 1 -19z m83 -42 c0 -7 -9 -16 -19 -19 -17 -4 -18 -2 -8
14 14 22 27 25 27 5z m26 -28 c-5 8 0 12 15 12 21 0 21 -1 5 -19 -9 -10 -14
-25 -10 -35 5 -12 2 -15 -10 -10 -9 3 -16 1 -16 -5 0 -6 -6 -11 -13 -11 -7 0
-13 9 -13 19 0 11 5 17 11 13 5 -3 4 2 -4 12 -13 15 -13 19 -1 26 9 5 20 4 29
-3 12 -9 13 -9 7 1z m1884 -158 c0 -5 -4 -10 -10 -10 -5 0 -10 5 -10 10 0 6 5
10 10 10 6 0 10 -4 10 -10z m-1920 -56 c0 -2 -7 -4 -15 -4 -8 0 -15 4 -15 10
0 5 7 7 15 4 8 -4 15 -8 15 -10z m158 -39 c-3 -3 -9 2 -12 12 -6 14 -5 15 5 6
7 -7 10 -15 7 -18z m-1028 8 c-1 -17 -47 -41 -61 -32 -12 7 -11 9 2 9 9 0 22
7 29 15 13 16 30 20 30 8z m1847 -15 c-3 -8 -6 -5 -6 6 -1 11 2 17 5 13 3 -3
4 -12 1 -19z m-847 2 c0 -5 -2 -10 -4 -10 -3 0 -8 5 -11 10 -3 6 -1 10 4 10 6
0 11 -4 11 -10z m-40 -20 c0 -5 -2 -10 -4 -10 -3 0 -8 5 -11 10 -3 6 -1 10 4
10 6 0 11 -4 11 -10z m1860 -57 c15 -69 16 -323 0 -450 -6 -49 -15 -126 -21
-173 -6 -47 -17 -119 -26 -160 -8 -41 -17 -85 -18 -97 -6 -45 -18 -89 -30
-113 -7 -14 -21 -54 -31 -90 -10 -36 -29 -80 -41 -99 -13 -19 -23 -40 -23 -47
0 -8 -5 -14 -11 -14 -5 0 -8 -4 -5 -9 3 -5 -1 -11 -9 -15 -8 -3 -12 -12 -9
-21 4 -10 0 -15 -10 -15 -9 0 -16 -5 -16 -10 0 -6 12 -9 28 -8 17 2 26 -1 25
-9 -3 -12 9 -17 30 -14 4 0 7 -8 7 -19 0 -21 -19 -28 -21 -7 0 9 -2 9 -5 0 -3
-7 0 -22 6 -34 7 -12 8 -19 2 -15 -17 10 -19 -37 -4 -61 12 -20 12 -23 -1 -23
-9 0 -14 -10 -14 -25 0 -19 5 -25 21 -26 19 -1 18 -2 -4 -8 -20 -6 -24 -13
-22 -34 2 -21 -3 -30 -20 -37 l-23 -9 25 -2 c16 -1 19 -3 8 -6 -9 -2 -16 -13
-15 -24 1 -14 9 -19 28 -19 33 0 40 -16 29 -66 -5 -23 -5 -41 0 -44 13 -8 4
-51 -12 -62 -10 -6 -9 -8 2 -8 10 0 11 -3 4 -8 -6 -4 -10 -20 -8 -37 2 -16 -2
-33 -9 -37 -8 -6 -9 -10 -1 -15 12 -9 14 -54 2 -47 -5 3 -7 -13 -5 -36 2 -23
0 -43 -4 -45 -4 -3 -21 11 -38 30 -17 19 -33 35 -37 35 -3 0 -21 12 -39 28
-42 34 -119 82 -134 82 -6 0 -11 4 -11 10 0 5 -7 7 -15 4 -8 -4 -15 -1 -15 6
0 6 -4 8 -10 5 -5 -3 -10 -1 -10 5 0 7 -6 10 -13 7 -8 -3 -20 3 -27 13 -8 11
-17 17 -20 15 -4 -3 -15 4 -25 15 -10 11 -23 20 -28 20 -15 0 -157 110 -157
121 0 5 -5 9 -10 9 -12 0 -14 2 -85 66 -27 25 -61 52 -76 61 -14 9 -34 29 -43
44 -17 29 -17 29 19 60 24 21 34 37 30 49 -4 12 12 33 57 71 35 29 95 85 135
124 106 104 136 130 145 128 7 -3 12 12 9 30 0 4 8 7 19 7 11 0 20 5 20 11 0
5 4 8 8 5 5 -3 14 11 21 30 7 18 17 34 22 34 5 0 13 8 16 18 7 18 17 31 46 63
9 10 15 19 13 19 -7 0 36 50 102 119 35 36 58 67 53 69 -12 4 -15 32 -3 32 8
0 32 48 32 66 0 7 9 16 20 19 11 3 20 15 20 25 0 10 5 22 10 25 6 3 10 17 10
30 0 12 7 26 16 29 10 4 14 12 10 22 -8 20 25 74 55 92 19 12 21 20 15 59 -5
40 -4 44 13 38 16 -5 18 -2 14 14 -3 12 -2 29 3 38 12 26 12 107 -1 116 -6 5
-3 7 8 3 14 -4 17 1 19 27 5 98 6 107 16 107 5 0 15 -26 22 -57z m-2790 5 c0
-5 -4 -8 -10 -8 -5 0 -10 7 -10 15 0 8 -8 15 -17 15 -15 0 -15 2 -4 9 14 9 40
-11 41 -31z m864 34 c2 -4 -4 -8 -14 -8 -10 0 -16 4 -14 8 3 4 9 8 14 8 5 0
11 -4 14 -8z m1832 -29 c-10 -10 -19 5 -10 18 6 11 8 11 12 0 2 -7 1 -15 -2
-18z m-1046 13 c0 -3 -4 -8 -10 -11 -5 -3 -10 -1 -10 4 0 6 5 11 10 11 6 0 10
-2 10 -4z m-1700 -16 c0 -5 -5 -10 -11 -10 -5 0 -7 5 -4 10 3 6 8 10 11 10 2
0 4 -4 4 -10z m1316 -19 c-4 -6 -16 -11 -26 -11 -19 0 -19 1 -3 20 17 20 42
12 29 -9z m34 -12 c0 -5 -7 -9 -15 -9 -15 0 -20 12 -9 23 8 8 24 -1 24 -14z
m-1187 -13 c12 -9 14 -16 7 -21 -12 -7 -40 11 -40 26 0 13 12 11 33 -5z m2573
0 c8 -8 14 -18 14 -22 0 -5 -5 -3 -12 4 -16 16 -28 15 -28 -3 0 -8 -4 -15 -10
-15 -14 0 -13 18 3 35 15 18 16 18 33 1z m-2631 -6 c-3 -5 -11 -10 -16 -10 -6
0 -7 5 -4 10 3 6 11 10 16 10 6 0 7 -4 4 -10z m955 -86 c0 -13 -4 -24 -10 -24
-5 0 -10 14 -10 31 0 17 4 28 10 24 6 -3 10 -17 10 -31z m1615 -94 c3 -5 -1
-10 -10 -10 -9 0 -13 5 -10 10 3 6 8 10 10 10 2 0 7 -4 10 -10z m-199 -262
c-21 -14 -26 -8 -14 18 11 23 13 24 19 7 3 -10 1 -21 -5 -25z m30 -55 c-2 -16
-5 -32 -6 -38 -1 -5 -5 1 -9 15 -4 14 -3 31 2 38 15 19 18 15 13 -15z m-110
-78 c-9 -9 -16 -13 -16 -8 0 12 22 34 28 28 2 -2 -3 -11 -12 -20z m-330 -190
c4 -26 -13 -16 -19 11 -3 18 -1 22 6 15 6 -6 12 -18 13 -26z m58 -6 c-4 -8 1
-9 16 -4 32 10 17 -11 -22 -31 -34 -18 -59 -6 -33 16 13 11 14 10 9 -4 -3 -9
-3 -16 0 -16 4 0 11 11 16 25 5 14 12 25 15 25 4 0 3 -5 -1 -11z m-44 -72 c0
-2 -10 -12 -21 -23 -22 -19 -22 -19 -8 4 12 19 29 30 29 19z m100 -11 c0 -3
-4 -8 -10 -11 -5 -3 -10 -1 -10 4 0 6 5 11 10 11 6 0 10 -2 10 -4z m-745 -16
c-3 -5 -10 -10 -16 -10 -5 0 -9 5 -9 10 0 6 7 10 16 10 8 0 12 -4 9 -10z m508
-16 c-4 -10 -15 -11 -41 -5 -2 1 -1 5 2 9 8 13 44 9 39 -4z m227 -4 c0 -4 -7
-10 -15 -14 -10 -4 -15 1 -15 14 0 13 5 18 15 14 8 -4 15 -10 15 -14z m30 0
c0 -5 -5 -10 -11 -10 -5 0 -7 5 -4 10 3 6 8 10 11 10 2 0 4 -4 4 -10z m-260
-67 c-1 -13 -30 -48 -30 -36 0 7 5 15 10 18 6 4 8 11 5 16 -4 5 -1 9 4 9 6 0
11 -3 11 -7z m-48 -35 c-6 -6 -15 -8 -19 -4 -4 4 -1 11 7 16 19 12 27 3 12
-12z m-32 0 c0 -19 -13 -34 -35 -41 -16 -6 -15 -3 5 14 17 14 19 19 8 15 -18
-5 -24 5 -11 17 11 12 33 8 33 -5z m175 -8 c-3 -5 -11 -10 -16 -10 -6 0 -7 5
-4 10 3 6 11 10 16 10 6 0 7 -4 4 -10z m-445 -50 c-10 -19 -30 -28 -30 -14 0
6 30 33 38 34 1 0 -2 -9 -8 -20z m464 5 c-4 -8 -10 -15 -15 -15 -4 0 -6 7 -3
15 4 8 10 15 15 15 4 0 6 -7 3 -15z m-679 -25 c-10 -11 -23 -20 -28 -20 -6 0
-2 9 8 20 10 11 23 20 28 20 6 0 2 -9 -8 -20z m627 -11 c-21 -8 -30 10 -11 22
8 5 16 3 21 -4 4 -7 0 -15 -10 -18z m-1532 11 c0 -5 -2 -10 -4 -10 -3 0 -8 5
-11 10 -3 6 -1 10 4 10 6 0 11 -4 11 -10z m1430 6 c0 -2 -7 -6 -15 -10 -8 -3
-15 -1 -15 4 0 6 7 10 15 10 8 0 15 -2 15 -4z m43 -16 c-3 -12 -8 -19 -11 -16
-5 6 5 36 12 36 2 0 2 -9 -1 -20z m-263 -10 c0 -5 -7 -10 -15 -10 -13 0 -18
-10 -17 -30 0 -3 -11 -6 -24 -6 -35 -3 -32 31 4 44 36 14 52 14 52 2z m335
-30 c-3 -5 -14 -10 -23 -10 -15 0 -15 2 -2 10 20 13 33 13 25 0z m-455 -10 c0
-5 -5 -10 -11 -10 -5 0 -7 5 -4 10 3 6 8 10 11 10 2 0 4 -4 4 -10z m-27 -45
c-3 -9 -8 -14 -10 -11 -3 3 -2 9 2 15 9 16 15 13 8 -4z m-963 1 c0 -3 -4 -8
-10 -11 -5 -3 -10 -1 -10 4 0 6 5 11 10 11 6 0 10 -2 10 -4z m66 -101 c0 -14
-7 -25 -13 -25 -14 0 -16 10 -7 34 9 25 22 19 20 -9z m142 -82 c-14 -14 -48
-9 -48 7 0 10 40 18 53 12 5 -2 3 -11 -5 -19z m-78 -43 c0 -5 -2 -10 -4 -10
-3 0 -8 5 -11 10 -3 6 -1 10 4 10 6 0 11 -4 11 -10z m1130 -4 c0 -2 -7 -7 -16
-10 -8 -3 -12 -2 -9 4 6 10 25 14 25 6z m-43 -59 c-6 -15 -67 -29 -67 -15 0 4
8 8 19 8 10 0 24 7 31 15 15 18 25 13 17 -8z m-257 -3 c0 -10 -6 -14 -15 -10
-8 3 -15 0 -15 -6 0 -6 -3 -8 -6 -5 -8 8 14 37 27 37 5 0 9 -7 9 -16z m150 11
c0 -10 -45 -23 -55 -17 -5 3 1 9 15 13 33 9 40 10 40 4z m-120 -14 c0 -6 -4
-13 -10 -16 -5 -3 -10 1 -10 9 0 9 5 16 10 16 6 0 10 -4 10 -9z m1130 -161 c0
-5 -2 -10 -4 -10 -3 0 -8 5 -11 10 -3 6 -1 10 4 10 6 0 11 -4 11 -10z m-1645
-80 c3 -5 1 -10 -4 -10 -6 0 -11 5 -11 10 0 6 2 10 4 10 3 0 8 -4 11 -10z
m923 4 c52 -14 14 -24 -92 -24 -134 0 -248 -20 -346 -59 -74 -30 -97 -25 -32
7 54 28 133 52 215 67 77 14 217 19 255 9z m-1168 -14 c0 -5 -4 -10 -10 -10
-5 0 -10 5 -10 10 0 6 5 10 10 10 6 0 10 -4 10 -10z m-36 -82 c-10 -16 -22 -7
-17 13 4 15 8 17 14 8 4 -7 5 -17 3 -21z m336 12 c0 -5 -4 -10 -10 -10 -5 0
-10 5 -10 10 0 6 5 10 10 10 6 0 10 -4 10 -10z m220 -470 c0 -5 -13 -8 -30 -8
-35 1 -40 15 -7 20 25 5 37 1 37 -12z m1260 -220 c-20 -13 -33 -13 -25 0 3 6
14 10 23 10 15 0 15 -2 2 -10z m-1740 -54 c0 -3 -4 -8 -10 -11 -5 -3 -10 -1
-10 4 0 6 5 11 10 11 6 0 10 -2 10 -4z m937 -38 c-3 -8 -6 -5 -6 6 -1 11 2 17
5 13 3 -3 4 -12 1 -19z m862 -48 c0 -10 -3 -8 -9 5 -12 27 -12 43 0 25 5 -8 9
-22 9 -30z m-852 -72 c-3 -8 -6 -5 -6 6 -1 11 2 17 5 13 3 -3 4 -12 1 -19z
m515 -147 c7 10 8 8 2 -6 -4 -11 -7 -33 -7 -49 0 -27 -1 -28 -13 -11 -17 23
-18 35 -3 35 6 0 8 10 5 23 -3 12 -3 16 0 8 5 -11 8 -11 16 0z m385 -53 c-3
-8 -6 -5 -6 6 -1 11 2 17 5 13 3 -3 4 -12 1 -19z m-1747 2 c0 -5 -2 -10 -4
-10 -3 0 -8 5 -11 10 -3 6 -1 10 4 10 6 0 11 -4 11 -10z m1747 -92 c-3 -8 -6
-5 -6 6 -1 11 2 17 5 13 3 -3 4 -12 1 -19z m-870 -20 c-3 -8 -6 -5 -6 6 -1 11
2 17 5 13 3 -3 4 -12 1 -19z m843 -78 c0 -5 -4 -10 -10 -10 -5 0 -10 5 -10 10
0 6 5 10 10 10 6 0 10 -4 10 -10z m-803 -292 c-3 -8 -6 -5 -6 6 -1 11 2 17 5
13 3 -3 4 -12 1 -19z m473 -58 c0 -5 -2 -10 -4 -10 -3 0 -8 5 -11 10 -3 6 -1
10 4 10 6 0 11 -4 11 -10z m367 -52 c-3 -8 -6 -5 -6 6 -1 11 2 17 5 13 3 -3 4
-12 1 -19z m43 -18 c0 -5 -5 -10 -11 -10 -5 0 -7 5 -4 10 3 6 8 10 11 10 2 0
4 -4 4 -10z m-20 -40 c-18 -12 -30 -13 -30 -2 0 4 10 9 22 9 18 2 20 0 8 -7z
m10 -90 c0 -5 -5 -10 -11 -10 -5 0 -7 5 -4 10 3 6 8 10 11 10 2 0 4 -4 4 -10z
m40 -6 c0 -2 -7 -4 -15 -4 -8 0 -15 4 -15 10 0 5 7 7 15 4 8 -4 15 -8 15 -10z
m-46 -119 c-4 -8 -11 -15 -16 -15 -6 0 -5 6 2 15 7 8 14 15 16 15 2 0 1 -7 -2
-15z m-1151 -75 c4 -17 2 -18 -14 -9 -22 11 -25 29 -5 29 7 0 16 -9 19 -20z
m334 -32 c-3 -8 -6 -5 -6 6 -1 11 2 17 5 13 3 -3 4 -12 1 -19z m443 -98 c0 -5
-5 -10 -11 -10 -5 0 -7 5 -4 10 3 6 8 10 11 10 2 0 4 -4 4 -10z m470 -6 c0 -8
-19 -13 -24 -6 -3 5 1 9 9 9 8 0 15 -2 15 -3z m10 -130 c0 -8 -19 -13 -24 -6
-3 5 1 9 9 9 8 0 15 -2 15 -3z m-61 -56 c-8 -15 -7 -24 4 -36 26 -31 32 -48
10 -29 -21 18 -21 18 -28 -2 -6 -20 -7 -19 -36 6 -16 14 -29 31 -29 36 0 6 12
0 27 -14 22 -20 25 -21 19 -5 -5 16 -4 17 9 6 9 -8 15 -8 15 -2 0 6 -4 13 -9
16 -13 9 -2 43 14 43 11 0 11 -5 4 -19z m-1469 2 c0 -5 -8 -10 -17 -10 -15 0
-16 2 -3 10 19 12 20 12 20 0z m1480 -91 c0 -6 -4 -7 -10 -4 -5 3 -10 11 -10
16 0 6 5 7 10 4 6 -3 10 -11 10 -16z m-45 -40 c11 -17 -1 -21 -15 -4 -8 9 -8
15 -2 15 6 0 14 -5 17 -11z m-1070 -359 c3 -5 1 -10 -4 -10 -6 0 -11 5 -11 10
0 6 2 10 4 10 3 0 8 -4 11 -10z m-5 -26 c0 -2 -7 -4 -15 -4 -8 0 -15 4 -15 10
0 5 7 7 15 4 8 -4 15 -8 15 -10z m-535 -124 c3 -6 -4 -10 -17 -10 -18 0 -20 2
-8 10 19 12 18 12 25 0z m26 -223 c-10 -9 -11 -8 -5 6 3 10 9 15 12 12 3 -3 0
-11 -7 -18z m946 -79 c-3 -8 -6 -5 -6 6 -1 11 2 17 5 13 3 -3 4 -12 1 -19z
m-929 -11 c2 -9 -2 -17 -9 -17 -7 0 -9 3 -6 7 4 3 1 13 -6 21 -10 13 -9 14 3
10 8 -2 16 -12 18 -21z m2 -37 c0 -5 -4 -10 -10 -10 -5 0 -10 5 -10 10 0 6 5
10 10 10 6 0 10 -4 10 -10z m947 -72 c-3 -8 -6 -5 -6 6 -1 11 2 17 5 13 3 -3
4 -12 1 -19z m793 -3 c0 -7 -30 -13 -34 -7 -3 4 4 9 15 9 10 1 19 0 19 -2z
m-1715 -35 c3 -5 1 -10 -4 -10 -6 0 -11 -7 -11 -15 0 -8 -4 -15 -10 -15 -11 0
-13 11 -4 34 7 18 20 21 29 6z m1730 -50 c3 -6 -1 -7 -9 -4 -18 7 -21 14 -7
14 6 0 13 -4 16 -10z m86 -40 c-7 -3 -9 -15 -6 -26 6 -18 6 -18 -5 -1 -14 21
-5 52 11 41 8 -5 8 -8 0 -14z m-1792 -56 c16 -14 17 -20 8 -35 -16 -25 -37
-24 -30 1 3 11 0 27 -7 35 -17 21 4 20 29 -1z m1801 -42 c0 -15 -2 -15 -10 -2
-13 20 -13 33 0 25 6 -3 10 -14 10 -23z m-843 -34 c-3 -7 -5 -2 -5 12 0 14 2
19 5 13 2 -7 2 -19 0 -25z m773 20 c0 -11 -22 -10 -39 1 -10 7 -7 9 12 8 15
-1 27 -5 27 -9z m-1705 -19 c4 -5 -1 -9 -9 -9 -10 0 -13 -6 -9 -16 4 -11 2
-15 -7 -12 -21 7 -19 44 2 45 10 1 20 -2 23 -8z m1692 -31 c-3 -8 -6 -5 -6 6
-1 11 2 17 5 13 3 -3 4 -12 1 -19z m20 0 c-3 -8 -6 -5 -6 6 -1 11 2 17 5 13 3
-3 4 -12 1 -19z m-53 -24 c3 -8 2 -12 -4 -9 -6 3 -10 10 -10 16 0 14 7 11 14
-7z m86 -15 c0 -5 -11 -9 -25 -9 -14 0 -25 4 -25 9 0 5 11 9 25 9 14 0 25 -4
25 -9z m61 -30 c11 -11 18 -23 15 -26 -5 -5 -46 34 -46 44 0 8 12 1 31 -18z
m-54 -11 c-3 -8 -6 -5 -6 6 -1 11 2 17 5 13 3 -3 4 -12 1 -19z m-800 -10 c-3
-8 -6 -5 -6 6 -1 11 2 17 5 13 3 -3 4 -12 1 -19z m778 12 c3 -5 1 -10 -4 -10
-6 0 -11 5 -11 10 0 6 2 10 4 10 3 0 8 -4 11 -10z m-95 -45 c0 -8 -2 -15 -4
-15 -2 0 -6 7 -10 15 -3 8 -1 15 4 15 6 0 10 -7 10 -15z m118 -3 c2 -7 -1 -12
-6 -12 -17 0 -42 12 -42 19 0 12 44 5 48 -7z m57 8 c3 -6 -1 -7 -9 -4 -18 7
-21 14 -7 14 6 0 13 -4 16 -10z m-1805 -14 c0 -2 -7 -7 -16 -10 -8 -3 -12 -2
-9 4 6 10 25 14 25 6z m1710 -25 c0 -10 -26 -9 -36 2 -4 4 2 7 14 7 12 0 22
-4 22 -9z m47 -13 c-3 -8 -6 -5 -6 6 -1 11 2 17 5 13 3 -3 4 -12 1 -19z m-17
2 c0 -5 -5 -10 -11 -10 -5 0 -7 5 -4 10 3 6 8 10 11 10 2 0 4 -4 4 -10z m100
-16 c0 -8 -19 -13 -24 -6 -3 5 1 9 9 9 8 0 15 -2 15 -3z m-190 -24 c0 -11 -2
-20 -4 -20 -2 0 -6 9 -9 20 -3 11 -1 20 4 20 5 0 9 -9 9 -20z m106 -3 c4 -4
-5 -6 -19 -5 -15 1 -27 6 -27 10 0 9 36 5 46 -5z m81 -36 c1 -24 1 -25 -13 -6
-17 23 -18 32 -1 32 6 0 13 -12 14 -26z m-187 -12 c0 -6 -4 -7 -10 -4 -5 3
-10 11 -10 16 0 6 5 7 10 4 6 -3 10 -11 10 -16z m73 14 c-7 -2 -19 -2 -25 0
-7 3 -2 5 12 5 14 0 19 -2 13 -5z m44 -15 c-3 -8 -6 -5 -6 6 -1 11 2 17 5 13
3 -3 4 -12 1 -19z m-12 -26 c5 0 11 -5 13 -11 3 -10 -42 -6 -60 5 -18 11 -7
23 15 15 12 -5 26 -9 32 -9z m-88 -14 c-3 -8 -6 -5 -6 6 -1 11 2 17 5 13 3 -3
4 -12 1 -19z m-1647 -8 c0 -5 -4 -10 -10 -10 -5 0 -10 5 -10 10 0 6 5 10 10
10 6 0 10 -4 10 -10z m1720 -19 c0 -6 -9 -9 -20 -8 -11 1 -20 5 -20 9 0 4 9 8
20 8 11 0 20 -4 20 -9z m98 -46 c-3 -3 -9 2 -12 12 -6 14 -5 15 5 6 7 -7 10
-15 7 -18z m-1808 5 c0 -5 -4 -10 -10 -10 -5 0 -10 5 -10 10 0 6 5 10 10 10 6
0 10 -4 10 -10z m1725 0 c4 -6 -5 -10 -19 -10 -14 0 -26 5 -26 10 0 6 9 10 19
10 11 0 23 -4 26 -10z m42 -22 c2 -16 0 -16 -13 -4 -17 18 -18 23 -1 23 7 0
14 -9 14 -19z m-1784 -5 c-7 -2 -19 -2 -25 0 -7 3 -2 5 12 5 14 0 19 -2 13 -5z
m1710 -2 c4 -1 7 -5 7 -10 0 -4 -11 -6 -25 -3 -14 2 -25 8 -25 12 0 5 8 7 18
5 9 -2 20 -4 25 -4z m142 -1 c3 -5 1 -10 -4 -10 -6 0 -11 5 -11 10 0 6 2 10 4
10 3 0 8 -4 11 -10z m-98 -22 c-3 -8 -6 -5 -6 6 -1 11 2 17 5 13 3 -3 4 -12 1
-19z m-1760 -4 c-3 -3 -12 -4 -19 -1 -8 3 -5 6 6 6 11 1 17 -2 13 -5z m1753
-25 c0 -10 -7 -11 -37 -3 -34 9 -28 21 7 16 17 -2 30 -8 30 -13z m100 11 c0
-5 -4 -10 -10 -10 -5 0 -10 5 -10 10 0 6 5 10 10 10 6 0 10 -4 10 -10z m25 0
c3 -5 1 -10 -4 -10 -6 0 -11 5 -11 10 0 6 2 10 4 10 3 0 8 -4 11 -10z m-1855
-10 c0 -5 -5 -10 -11 -10 -5 0 -7 5 -4 10 3 6 8 10 11 10 2 0 4 -4 4 -10z
m1752 -12 c-7 -7 -12 -8 -12 -2 0 14 12 26 19 19 2 -3 -1 -11 -7 -17z m-1727
-18 c-3 -5 -11 -10 -16 -10 -6 0 -7 5 -4 10 3 6 11 10 16 10 6 0 7 -4 4 -10z"/>
<path d="M4580 7543 c0 -10 4 -14 8 -8 4 6 11 13 16 18 5 4 2 7 -7 7 -10 0
-17 -8 -17 -17z"/>
<path d="M4615 7540 c-3 -5 -2 -10 4 -10 5 0 13 5 16 10 3 6 2 10 -4 10 -5 0
-13 -4 -16 -10z"/>
<path d="M4075 7300 c-3 -5 -1 -10 4 -10 6 0 11 5 11 10 0 6 -2 10 -4 10 -3 0
-8 -4 -11 -10z"/>
<path d="M3150 7070 c0 -5 5 -10 10 -10 6 0 10 5 10 10 0 6 -4 10 -10 10 -5 0
-10 -4 -10 -10z"/>
<path d="M2808 6943 c7 -3 16 -2 19 1 4 3 -2 6 -13 5 -11 0 -14 -3 -6 -6z"/>
<path d="M2945 6930 c3 -5 8 -10 11 -10 2 0 4 5 4 10 0 6 -5 10 -11 10 -5 0
-7 -4 -4 -10z"/>
<path d="M2980 6899 c0 -5 5 -7 10 -4 6 3 10 8 10 11 0 2 -4 4 -10 4 -5 0 -10
-5 -10 -11z"/>
<path d="M3388 6903 c7 -3 16 -2 19 1 4 3 -2 6 -13 5 -11 0 -14 -3 -6 -6z"/>
<path d="M5150 4940 c0 -5 5 -10 10 -10 6 0 10 5 10 10 0 6 -4 10 -10 10 -5 0
-10 -4 -10 -10z"/>
<path d="M5052 4840 c-10 -17 -10 -20 3 -20 8 0 15 5 15 10 0 6 8 10 18 10 14
0 15 2 2 10 -21 13 -23 13 -38 -10z"/>
<path d="M4980 4765 c0 -8 4 -15 10 -15 5 0 7 7 4 15 -4 8 -8 15 -10 15 -2 0
-4 -7 -4 -15z"/>
<path d="M4934 4735 c-9 -22 1 -29 15 -11 8 10 9 16 1 21 -5 3 -13 -1 -16 -10z"/>
<path d="M4911 4704 c0 -11 3 -14 6 -6 3 7 2 16 -1 19 -3 4 -6 -2 -5 -13z"/>
<path d="M4875 4660 c3 -5 8 -10 11 -10 2 0 4 5 4 10 0 6 -5 10 -11 10 -5 0
-7 -4 -4 -10z"/>
<path d="M5234 4379 c-3 -5 6 -9 20 -9 32 0 41 15 10 16 -13 1 -27 -2 -30 -7z"/>
<path d="M4305 8880 c3 -5 8 -10 11 -10 2 0 4 5 4 10 0 6 -5 10 -11 10 -5 0
-7 -4 -4 -10z"/>
<path d="M4332 8810 c0 -14 2 -19 5 -12 2 6 2 18 0 25 -3 6 -5 1 -5 -13z"/>
<path d="M4100 8695 c0 -9 6 -12 15 -9 8 4 15 10 15 15 0 5 -7 9 -15 9 -8 0
-15 -7 -15 -15z"/>
<path d="M4612 8670 c-7 -18 -7 -30 -1 -30 5 0 9 6 9 13 0 8 3 8 9 -2 5 -8 7
-20 4 -28 -3 -7 0 -13 7 -13 15 0 9 82 -6 87 -7 2 -17 -10 -22 -27z"/>
<path d="M3000 8530 c0 -5 5 -10 11 -10 5 0 7 5 4 10 -3 6 -8 10 -11 10 -2 0
-4 -4 -4 -10z"/>
<path d="M2740 8510 c0 -5 5 -10 10 -10 6 0 10 5 10 10 0 6 -4 10 -10 10 -5 0
-10 -4 -10 -10z"/>
<path d="M4940 8493 c0 -15 19 -37 26 -31 3 4 -1 14 -10 23 -9 9 -16 13 -16 8z"/>
<path d="M2890 8470 c0 -5 7 -10 16 -10 8 0 12 5 9 10 -3 6 -10 10 -16 10 -5
0 -9 -4 -9 -10z"/>
<path d="M2728 8456 c-10 -7 -15 -16 -12 -19 9 -8 44 11 44 23 0 13 -12 12
-32 -4z"/>
<path d="M2821 8454 c0 -11 3 -14 6 -6 3 7 2 16 -1 19 -3 4 -6 -2 -5 -13z"/>
<path d="M5015 8420 c4 -6 11 -8 16 -5 14 9 11 15 -7 15 -8 0 -12 -5 -9 -10z"/>
<path d="M2810 8413 c0 -6 -9 -10 -20 -8 -11 2 -20 -1 -20 -7 0 -5 7 -8 15 -4
8 3 21 -2 30 -10 11 -12 15 -12 15 -2 0 17 -20 47 -20 31z"/>
<path d="M5045 8393 c7 -26 3 -28 -28 -12 -19 9 -18 7 3 -10 14 -12 31 -26 38
-32 10 -8 10 -14 1 -25 -9 -11 -8 -19 4 -38 12 -18 13 -26 4 -36 -10 -10 -7
-10 11 -1 20 11 21 15 10 29 -12 15 -11 16 5 3 9 -7 17 -21 17 -31 0 -16 20
-38 50 -55 13 -8 13 -6 2 8 -8 9 -15 28 -17 42 -1 15 -8 32 -15 38 -10 10 -10
7 -1 -10 6 -13 8 -23 3 -23 -5 0 -14 11 -20 25 -6 14 -8 25 -3 25 7 0 8 24 1
55 -6 25 2 28 14 6 7 -13 16 -19 19 -14 4 6 -2 20 -12 32 -16 18 -20 19 -30 7
-10 -12 -10 -20 0 -38 12 -23 12 -23 -10 -4 -11 11 -21 24 -21 30 0 6 -8 20
-16 31 -16 20 -16 20 -9 -2z"/>
<path d="M2751 8384 c0 -11 3 -14 6 -6 3 7 2 16 -1 19 -3 4 -6 -2 -5 -13z"/>
<path d="M2716 8381 c-4 -7 -5 -15 -2 -18 9 -9 19 4 14 18 -4 11 -6 11 -12 0z"/>
<path d="M4985 8360 c1 -11 10 -28 20 -38 12 -12 15 -13 9 -2 -5 8 -9 21 -11
29 -3 23 -20 33 -18 11z"/>
<path d="M2740 8348 c0 -7 4 -19 9 -26 11 -18 61 -5 61 17 0 13 -2 13 -9 2 -5
-7 -10 -9 -12 -3 -7 16 -49 25 -49 10z"/>
<path d="M5040 8324 c0 -8 5 -12 10 -9 6 4 8 11 5 16 -9 14 -15 11 -15 -7z"/>
<path d="M5163 8333 c4 -3 0 -11 -9 -17 -14 -10 -13 -15 6 -39 18 -22 20 -30
10 -42 -11 -14 -7 -19 12 -16 4 0 10 -8 13 -19 4 -11 11 -20 16 -20 6 0 8 4 5
8 -3 5 -8 24 -11 42 -3 18 -14 39 -23 46 -9 7 -14 16 -9 20 4 4 7 2 7 -4 0 -7
6 -12 14 -12 8 0 18 -9 21 -20 6 -19 24 -28 26 -12 0 4 2 19 4 34 3 23 0 26
-21 23 -17 -1 -24 2 -20 10 3 8 -2 16 -10 19 -21 8 -39 8 -31 -1z"/>
<path d="M2803 8292 c-17 -11 -22 -72 -6 -72 18 0 30 33 15 38 -7 2 -12 8 -12
13 0 6 4 8 9 4 5 -3 12 -1 15 4 8 13 -7 22 -21 13z"/>
<path d="M5035 8283 c4 -10 8 -23 8 -30 0 -6 6 -9 13 -6 11 4 10 10 -3 29 -18
28 -28 32 -18 7z"/>
<path d="M2902 8171 c-6 -17 -9 -31 -6 -31 7 0 25 52 20 57 -2 2 -8 -10 -14
-26z"/>
<path d="M5297 8193 c-4 -3 -7 -16 -6 -27 0 -19 1 -19 10 3 10 24 8 36 -4 24z"/>
<path d="M5099 8173 c6 -10 20 -29 32 -43 20 -24 20 -23 -2 18 -12 23 -27 42
-31 42 -5 0 -4 -8 1 -17z"/>
<path d="M5160 8155 c0 -8 5 -15 11 -15 5 0 8 -4 4 -9 -3 -5 -2 -12 3 -15 4
-2 9 6 10 19 1 13 -5 26 -13 29 -9 3 -15 0 -15 -9z"/>
<path d="M5200 8129 c0 -5 5 -7 10 -4 6 3 10 8 10 11 0 2 -4 4 -10 4 -5 0 -10
-5 -10 -11z"/>
<path d="M5110 8101 c5 -11 15 -23 21 -27 6 -3 3 5 -6 20 -20 30 -30 35 -15 7z"/>
<path d="M5310 8100 c6 -11 13 -20 16 -20 2 0 0 9 -6 20 -6 11 -13 20 -16 20
-2 0 0 -9 6 -20z"/>
<path d="M2861 8094 c0 -11 3 -14 6 -6 3 7 2 16 -1 19 -3 4 -6 -2 -5 -13z"/>
<path d="M5243 8095 c-7 -8 -9 -16 -4 -19 5 -3 12 1 15 10 8 22 4 25 -11 9z"/>
<path d="M5216 8065 c4 -11 10 -24 14 -30 5 -5 10 -17 13 -25 2 -8 3 -2 0 15
-2 16 -10 37 -19 45 -13 13 -14 13 -8 -5z"/>
<path d="M5266 7995 c-4 -15 -5 -30 -1 -33 3 -3 5 2 5 11 0 8 6 17 13 20 9 3
9 8 1 16 -9 10 -13 6 -18 -14z"/>
<path d="M2797 7938 c-2 -7 -1 -22 3 -32 6 -18 7 -18 13 5 4 13 7 27 7 32 0
12 -18 8 -23 -5z"/>
<path d="M2670 7775 c0 -8 5 -15 10 -15 6 0 10 7 10 15 0 8 -4 15 -10 15 -5 0
-10 -7 -10 -15z"/>
<path d="M5426 7762 c-2 -4 -1 -14 5 -22 7 -12 9 -10 9 8 0 23 -5 28 -14 14z"/>
<path d="M5420 7668 c-18 -20 -22 -21 -31 -8 -9 12 -10 12 -5 -3 9 -27 -18
-81 -53 -106 -17 -12 -31 -27 -31 -33 0 -7 5 -6 14 1 12 10 13 8 9 -8 -3 -12
0 -27 6 -35 14 -17 33 -101 33 -146 -1 -19 4 -40 9 -46 5 -7 9 -16 8 -20 -4
-16 14 -114 20 -114 6 0 7 -13 13 -167 2 -59 6 -83 15 -83 7 0 13 -5 13 -11 0
-5 6 -7 13 -4 6 4 5 1 -4 -7 -9 -7 -15 -21 -13 -30 1 -10 -2 -21 -8 -24 -5 -3
0 -12 11 -20 26 -19 25 -76 -3 -123 -11 -19 -15 -31 -8 -27 7 4 12 1 12 -8 0
-8 4 -16 10 -18 5 -1 11 -22 12 -45 2 -22 7 -39 11 -36 5 3 7 -5 5 -18 -2 -13
-9 -23 -16 -21 -8 1 -11 -2 -7 -7 3 -6 12 -8 20 -5 10 4 13 -3 11 -31 -2 -20
-8 -41 -15 -48 -16 -16 -14 -23 8 -24 11 -1 21 6 24 18 3 10 2 17 -3 14 -8 -5
-4 129 5 152 2 7 0 15 -6 18 -5 4 -7 10 -4 15 3 5 1 11 -4 14 -6 4 -6 18 0 38
10 37 1 138 -13 138 -5 0 -6 5 -3 10 4 6 1 17 -5 25 -9 10 -9 15 -1 15 7 0 8
8 1 24 -5 14 -5 37 0 55 6 21 5 31 -3 35 -7 2 -2 5 9 5 25 1 37 14 52 58 9 26
8 36 -3 47 -8 7 -11 16 -8 20 4 3 -1 6 -10 6 -9 0 -17 -7 -17 -15 0 -32 -33
-95 -49 -94 -9 0 -11 3 -5 5 7 3 9 20 7 42 -3 20 -5 50 -4 65 0 15 -3 26 -7
23 -4 -2 -5 15 -4 38 2 23 -2 69 -8 102 -16 77 -31 200 -30 244 0 19 9 54 20
77 11 24 20 48 20 53 0 6 4 8 10 5 6 -3 7 1 4 9 -3 9 -1 16 5 16 6 0 11 5 11
10 0 17 -18 11 -40 -12z m53 -992 c3 -8 0 -20 -8 -26 -10 -8 -13 -5 -11 15 1
28 11 33 19 11z"/>
<path d="M5170 7550 c-9 -6 -10 -10 -3 -10 6 0 15 5 18 10 8 12 4 12 -15 0z"/>
<path d="M5502 7531 c-11 -7 -10 -15 3 -47 18 -42 32 -31 19 14 -4 15 -7 30
-6 35 2 9 0 9 -16 -2z"/>
<path d="M5130 7459 c0 -16 4 -28 9 -25 8 5 3 56 -5 56 -2 0 -4 -14 -4 -31z"/>
<path d="M2490 6971 c0 -6 4 -13 10 -16 6 -3 7 1 4 9 -7 18 -14 21 -14 7z"/>
<path d="M2580 6859 c0 -5 5 -7 10 -4 6 3 10 8 10 11 0 2 -4 4 -10 4 -5 0 -10
-5 -10 -11z"/>
<path d="M3345 6839 c-9 -14 -2 -20 14 -10 8 6 9 11 3 15 -6 3 -14 1 -17 -5z"/>
<path d="M2743 6805 c0 -9 4 -14 9 -13 5 2 10 8 10 13 0 5 -5 11 -10 13 -5 1
-9 -4 -9 -13z"/>
<path d="M2571 6794 c0 -11 3 -14 6 -6 3 7 2 16 -1 19 -3 4 -6 -2 -5 -13z"/>
<path d="M5435 6770 c3 -5 8 -10 11 -10 2 0 4 5 4 10 0 6 -5 10 -11 10 -5 0
-7 -4 -4 -10z"/>
<path d="M3600 6750 c0 -5 5 -10 11 -10 5 0 7 5 4 10 -3 6 -8 10 -11 10 -2 0
-4 -4 -4 -10z"/>
<path d="M3710 6650 c0 -5 5 -10 11 -10 5 0 7 5 4 10 -3 6 -8 10 -11 10 -2 0
-4 -4 -4 -10z"/>
<path d="M4095 6594 c-22 -10 -24 -13 -8 -10 12 2 27 -2 34 -10 13 -16 44 -19
34 -4 -3 6 0 10 8 10 7 0 14 7 14 15 0 19 -42 19 -82 -1z"/>
<path d="M2481 6574 c0 -11 3 -14 6 -6 3 7 2 16 -1 19 -3 4 -6 -2 -5 -13z"/>
<path d="M2760 6570 c0 -11 5 -20 10 -20 6 0 10 9 10 20 0 11 -4 20 -10 20 -5
0 -10 -9 -10 -20z"/>
<path d="M5367 6561 c-4 -17 -3 -21 5 -13 5 5 8 16 6 23 -3 8 -7 3 -11 -10z"/>
<path d="M5401 6557 c-6 -8 -7 -17 -3 -21 4 -4 0 -6 -8 -4 -9 2 -15 -6 -17
-22 -1 -15 0 -18 3 -7 4 11 12 16 23 12 13 -4 17 2 19 25 3 33 0 36 -17 17z"/>
<path d="M5430 6545 c0 -8 5 -15 10 -15 6 0 10 7 10 15 0 8 -4 15 -10 15 -5 0
-10 -7 -10 -15z"/>
<path d="M5386 6454 c-8 -21 -8 -21 9 -21 8 0 11 5 8 10 -4 7 1 8 12 3 15 -5
16 -4 5 9 -16 19 -26 19 -34 -1z"/>
<path d="M5360 6431 c0 -5 5 -13 11 -17 6 -3 9 -14 6 -24 -3 -12 0 -17 9 -13
7 3 10 12 6 21 -8 22 -32 47 -32 33z"/>
<path d="M2640 6390 c0 -5 5 -10 11 -10 5 0 7 5 4 10 -3 6 -8 10 -11 10 -2 0
-4 -4 -4 -10z"/>
<path d="M2636 6355 c-3 -8 -1 -15 4 -15 6 0 10 7 10 15 0 8 -2 15 -4 15 -2 0
-6 -7 -10 -15z"/>
<path d="M4242 6345 c6 -14 15 -25 20 -25 11 0 10 7 -2 31 -16 28 -32 23 -18
-6z"/>
<path d="M2770 6349 c0 -5 5 -7 10 -4 6 3 10 8 10 11 0 2 -4 4 -10 4 -5 0 -10
-5 -10 -11z"/>
<path d="M3966 6331 c-3 -5 1 -12 10 -15 27 -11 37 -7 24 9 -14 17 -26 19 -34
6z"/>
<path d="M4090 6320 c12 -23 12 -24 -3 -12 -22 19 -40 5 -33 -24 5 -19 2 -24
-11 -24 -12 0 -18 -8 -18 -24 0 -13 3 -22 8 -19 4 2 7 11 7 20 0 13 2 13 16 2
10 -8 12 -15 5 -17 -6 -2 -11 -7 -11 -12 0 -13 49 -6 55 8 2 6 9 12 15 12 6 0
8 -4 5 -10 -3 -5 1 -10 9 -10 9 0 16 5 16 11 0 6 9 9 20 6 29 -7 47 19 27 41
-9 9 -16 20 -16 25 -1 4 -4 7 -8 6 -4 0 -11 10 -15 22 -10 27 -22 18 -23 -18
0 -15 -7 -29 -15 -31 -12 -4 -13 -3 -3 10 11 12 8 19 -13 39 l-27 24 13 -25z
m1 -44 c6 3 8 -6 5 -21 -7 -37 -16 -44 -16 -12 0 14 -5 29 -10 32 -6 4 -7 12
-3 18 5 8 9 6 11 -6 2 -9 8 -15 13 -11z m84 -16 c-3 -5 -1 -10 4 -10 6 0 11
-5 11 -11 0 -8 -5 -8 -15 1 -17 14 -20 30 -4 30 5 0 7 -4 4 -10z"/>
<path d="M3500 6326 c0 -2 7 -7 16 -10 8 -3 12 -2 9 4 -6 10 -25 14 -25 6z"/>
<path d="M4247 6288 c-25 -18 -30 -47 -5 -32 6 4 15 0 20 -7 6 -10 7 -7 3 10
-5 15 -2 26 6 32 7 4 11 10 9 13 -3 2 -17 -5 -33 -16z"/>
<path d="M5336 6301 c-4 -7 -5 -15 -2 -18 9 -9 19 4 14 18 -4 11 -6 11 -12 0z"/>
<path d="M2659 6288 c-5 -22 -5 -69 1 -73 4 -2 7 14 8 35 1 22 0 40 -3 40 -3
0 -5 -1 -6 -2z"/>
<path d="M3901 6248 c7 -16 16 -28 21 -28 13 0 10 9 -13 33 l-21 22 13 -27z"/>
<path d="M2686 6245 c-4 -10 -2 -14 5 -9 6 4 15 0 20 -7 4 -7 10 -11 14 -8 3
3 -3 13 -14 23 -17 15 -19 15 -25 1z"/>
<path d="M4280 6240 c0 -5 5 -10 11 -10 5 0 7 5 4 10 -3 6 -8 10 -11 10 -2 0
-4 -4 -4 -10z"/>
<path d="M5289 6223 c0 -4 -2 -18 -3 -30 -2 -13 1 -23 6 -23 4 0 8 5 8 11 0 5
6 7 13 4 6 -4 4 0 -6 8 -13 11 -14 16 -6 19 10 3 10 6 1 12 -7 4 -12 4 -13 -1z"/>
<path d="M2630 6173 c0 -29 12 -24 17 7 2 11 -2 20 -7 20 -6 0 -10 -12 -10
-27z"/>
<path d="M4077 6138 c-26 -28 -26 -29 -5 -22 28 8 24 4 32 32 9 27 8 27 -27
-10z"/>
<path d="M4050 6150 c0 -5 5 -10 10 -10 6 0 10 5 10 10 0 6 -4 10 -10 10 -5 0
-10 -4 -10 -10z"/>
<path d="M4370 6149 c0 -5 5 -7 10 -4 6 3 10 8 10 11 0 2 -4 4 -10 4 -5 0 -10
-5 -10 -11z"/>
<path d="M4235 6120 c-3 -5 1 -10 10 -10 9 0 13 5 10 10 -3 6 -8 10 -10 10 -2
0 -7 -4 -10 -10z"/>
<path d="M2836 6095 c-3 -8 -1 -15 4 -15 6 0 10 7 10 15 0 8 -2 15 -4 15 -2 0
-6 -7 -10 -15z"/>
<path d="M4070 6100 c-9 -6 -10 -10 -3 -10 6 0 15 5 18 10 8 12 4 12 -15 0z"/>
<path d="M3163 5993 c-15 -5 -17 -23 -4 -23 5 0 11 7 15 15 3 8 4 15 3 14 -1
0 -8 -3 -14 -6z"/>
<path d="M2991 5878 c-1 -16 4 -28 9 -28 12 0 12 8 0 35 -8 18 -9 17 -9 -7z"/>
<path d="M3830 5880 c0 -4 6 -13 14 -19 10 -9 15 -8 19 3 3 8 -2 16 -14 19
-10 3 -19 2 -19 -3z"/>
<path d="M3923 5870 c-2 -18 0 -18 13 -6 17 18 18 26 1 26 -7 0 -13 -9 -14
-20z"/>
<path d="M3880 5860 c0 -5 5 -10 10 -10 6 0 10 5 10 10 0 6 -4 10 -10 10 -5 0
-10 -4 -10 -10z"/>
<path d="M3061 5804 c0 -11 3 -14 6 -6 3 7 2 16 -1 19 -3 4 -6 -2 -5 -13z"/>
<path d="M3020 5805 c0 -5 5 -17 10 -25 5 -8 10 -10 10 -5 0 6 -5 17 -10 25
-5 8 -10 11 -10 5z"/>
<path d="M3223 5531 c1 -22 12 -28 21 -12 3 5 -1 14 -9 21 -11 9 -14 8 -12 -9z"/>
<path d="M5000 5450 c0 -5 5 -10 11 -10 5 0 7 5 4 10 -3 6 -8 10 -11 10 -2 0
-4 -4 -4 -10z"/>
<path d="M4962 5419 c-17 -27 -5 -40 14 -15 8 11 14 23 14 28 0 15 -15 8 -28
-13z"/>
<path d="M4782 5350 c0 -14 2 -19 5 -12 2 6 2 18 0 25 -3 6 -5 1 -5 -13z"/>
<path d="M4650 5340 c0 -5 5 -10 10 -10 6 0 10 5 10 10 0 6 -4 10 -10 10 -5 0
-10 -4 -10 -10z"/>
<path d="M3580 5293 c0 -5 5 -15 10 -23 9 -13 11 -13 19 0 5 8 7 18 5 22 -6
10 -34 11 -34 1z"/>
<path d="M4870 5254 c0 -8 5 -12 10 -9 6 4 8 11 5 16 -9 14 -15 11 -15 -7z"/>
<path d="M4245 5200 c-3 -5 1 -10 9 -10 9 0 16 5 16 10 0 6 -4 10 -9 10 -6 0
-13 -4 -16 -10z"/>
<path d="M3885 4210 c-3 -5 -1 -10 4 -10 6 0 11 5 11 10 0 6 -2 10 -4 10 -3 0
-8 -4 -11 -10z"/>
<path d="M3955 4210 c3 -5 8 -10 11 -10 2 0 4 5 4 10 0 6 -5 10 -11 10 -5 0
-7 -4 -4 -10z"/>
<path d="M3911 4176 c1 -14 17 -53 19 -46 7 24 3 57 -7 57 -7 0 -13 -5 -12
-11z"/>
<path d="M3974 4158 c-4 -7 -3 -8 4 -4 7 4 12 2 12 -4 0 -6 5 -8 10 -5 11 7 4
25 -10 25 -5 0 -12 -5 -16 -12z"/>
<path d="M4020 4130 c0 -5 5 -10 10 -10 6 0 10 5 10 10 0 6 -4 10 -10 10 -5 0
-10 -4 -10 -10z"/>
<path d="M3960 4120 c0 -6 4 -10 10 -10 5 0 7 -8 4 -17 -5 -15 -4 -16 5 -3 14
20 14 27 -4 34 -8 3 -15 1 -15 -4z"/>
<path d="M3530 4090 c0 -5 5 -10 11 -10 5 0 7 5 4 10 -3 6 -8 10 -11 10 -2 0
-4 -4 -4 -10z"/>
<path d="M4002 4079 c-7 -11 -11 -23 -9 -25 7 -7 29 24 25 36 -2 6 -9 1 -16
-11z"/>
<path d="M4700 4080 c0 -5 5 -10 11 -10 5 0 7 5 4 10 -3 6 -8 10 -11 10 -2 0
-4 -4 -4 -10z"/>
<path d="M3945 4060 c3 -5 8 -10 11 -10 2 0 4 5 4 10 0 6 -5 10 -11 10 -5 0
-7 -4 -4 -10z"/>
<path d="M4825 3760 c-3 -6 1 -7 9 -4 18 7 21 14 7 14 -6 0 -13 -4 -16 -10z"/>
<path d="M3736 3725 c-3 -8 -1 -15 3 -15 5 0 11 7 15 15 3 8 1 15 -3 15 -5 0
-11 -7 -15 -15z"/>
<path d="M3830 3716 c0 -8 -5 -16 -12 -18 -7 -3 -8 -7 -2 -11 5 -3 15 3 22 13
7 12 8 21 2 25 -6 3 -10 0 -10 -9z"/>
<path d="M4732 3701 c2 -7 7 -12 11 -12 12 1 9 15 -3 20 -7 2 -11 -2 -8 -8z"/>
<path d="M4790 3679 c0 -5 5 -7 10 -4 6 3 10 8 10 11 0 2 -4 4 -10 4 -5 0 -10
-5 -10 -11z"/>
<path d="M4797 3641 c-3 -13 -10 -20 -16 -16 -6 3 -11 2 -11 -4 0 -15 23 -26
28 -13 2 7 8 10 13 6 11 -6 11 3 0 30 -7 19 -8 19 -14 -3z"/>
<path d="M4901 3485 c0 -31 2 -36 9 -23 6 10 7 25 1 40 -9 20 -10 18 -10 -17z"/>
<path d="M5236 3431 c-4 -7 -5 -15 -2 -18 9 -9 19 4 14 18 -4 11 -6 11 -12 0z"/>
<path d="M5185 3390 c3 -5 11 -10 16 -10 6 0 7 5 4 10 -3 6 -11 10 -16 10 -6
0 -7 -4 -4 -10z"/>
<path d="M5237 3394 c7 -3 9 -12 6 -20 -3 -7 -9 -11 -14 -8 -5 3 -9 0 -9 -5 0
-14 13 -14 28 1 18 18 15 38 -5 37 -10 0 -13 -3 -6 -5z"/>
<path d="M3495 3360 c3 -5 8 -10 11 -10 2 0 4 5 4 10 0 6 -5 10 -11 10 -5 0
-7 -4 -4 -10z"/>
<path d="M5265 3130 c3 -5 11 -10 16 -10 6 0 7 5 4 10 -3 6 -11 10 -16 10 -6
0 -7 -4 -4 -10z"/>
<path d="M4923 3073 c1 -17 5 -29 9 -27 3 2 9 -2 11 -8 4 -9 6 -8 6 2 0 8 -6
26 -14 40 l-14 25 2 -32z"/>
<path d="M4940 3093 c0 -15 19 -37 26 -31 3 4 -1 14 -10 23 -9 9 -16 13 -16 8z"/>
<path d="M3618 3063 c7 -3 16 -2 19 1 4 3 -2 6 -13 5 -11 0 -14 -3 -6 -6z"/>
<path d="M5276 2964 c-11 -8 -16 -14 -10 -14 13 0 39 18 34 24 -3 2 -14 -2
-24 -10z"/>
<path d="M5278 2893 c7 -3 16 -2 19 1 4 3 -2 6 -13 5 -11 0 -14 -3 -6 -6z"/>
<path d="M5278 2873 c7 -3 16 -2 19 1 4 3 -2 6 -13 5 -11 0 -14 -3 -6 -6z"/>
<path d="M5311 2810 c0 -8 4 -24 9 -35 5 -13 9 -14 9 -5 0 8 -4 24 -9 35 -5
13 -9 14 -9 5z"/>
<path d="M5288 2763 c7 -3 16 -2 19 1 4 3 -2 6 -13 5 -11 0 -14 -3 -6 -6z"/>
<path d="M5285 2721 c-3 -5 -1 -12 5 -16 5 -3 10 1 10 9 0 18 -6 21 -15 7z"/>
<path d="M5020 2630 c0 -5 5 -10 11 -10 5 0 7 5 4 10 -3 6 -8 10 -11 10 -2 0
-4 -4 -4 -10z"/>
<path d="M5310 2446 c0 -8 4 -17 9 -20 5 -4 7 3 4 14 -6 23 -13 26 -13 6z"/>
<path d="M5340 2390 c0 -5 5 -10 11 -10 5 0 7 5 4 10 -3 6 -8 10 -11 10 -2 0
-4 -4 -4 -10z"/>
<path d="M4201 2242 c-7 -13 -11 -26 -8 -28 8 -8 29 25 25 38 -3 8 -9 4 -17
-10z"/>
<path d="M3830 2220 c0 -5 5 -10 11 -10 5 0 7 5 4 10 -3 6 -8 10 -11 10 -2 0
-4 -4 -4 -10z"/>
<path d="M5140 2170 c0 -5 5 -10 10 -10 6 0 10 5 10 10 0 6 -4 10 -10 10 -5 0
-10 -4 -10 -10z"/>
<path d="M5177 2128 c4 -20 3 -21 -7 -5 -11 17 -30 24 -30 10 1 -5 11 -20 23
-36 l23 -27 1 35 c1 19 -3 37 -7 40 -4 3 -6 -5 -3 -17z"/>
<path d="M5338 2133 c6 -2 18 -2 25 0 6 3 1 5 -13 5 -14 0 -19 -2 -12 -5z"/>
<path d="M5134 2076 c2 -20 9 -42 16 -51 7 -8 8 -15 2 -15 -5 0 -17 10 -27 23
-16 21 -16 21 -1 -5 20 -35 21 -60 1 -34 -8 11 -15 15 -15 9 0 -7 5 -15 11
-19 6 -3 9 -15 6 -25 -3 -11 -2 -17 1 -15 4 2 14 -3 22 -12 13 -14 12 -15 -3
-9 -16 6 -16 5 -1 -18 13 -20 13 -24 2 -20 -7 3 -21 18 -31 33 -9 15 -17 22
-17 15 0 -6 4 -14 10 -18 5 -3 7 -21 5 -40 -3 -23 -1 -34 6 -32 6 1 14 -4 17
-12 3 -8 0 -11 -7 -7 -17 11 -13 -5 7 -27 16 -19 16 -20 0 -14 -10 4 -18 2
-18 -3 0 -6 9 -10 20 -10 11 0 20 4 20 9 0 5 17 8 38 6 20 -1 24 0 9 2 -24 4
-28 8 -23 26 2 12 -1 30 -9 41 -9 12 -11 25 -5 40 4 13 4 29 0 36 -9 15 -3 33
8 26 4 -2 7 6 7 19 0 16 -5 21 -15 17 -12 -4 -12 -2 -3 8 6 7 9 20 5 29 -5 14
-4 14 13 1 17 -14 17 -14 4 7 -8 14 -16 18 -20 12 -5 -8 -9 -8 -13 0 -4 6 -5
14 -2 19 2 4 -2 15 -9 25 -12 17 -13 15 -11 -17z m26 -234 c0 -3 -9 3 -20 13
-11 10 -20 23 -20 28 0 6 9 0 20 -13 11 -13 20 -25 20 -28z"/>
<path d="M5356 2057 c3 -10 9 -15 12 -12 3 3 0 11 -7 18 -10 9 -11 8 -5 -6z"/>
<path d="M3885 2020 c-3 -5 -1 -10 4 -10 6 0 11 5 11 10 0 6 -2 10 -4 10 -3 0
-8 -4 -11 -10z"/>
<path d="M5385 2020 c-8 -13 5 -13 25 0 13 8 13 10 -2 10 -9 0 -20 -4 -23 -10z"/>
<path d="M5380 1976 c0 -10 -5 -14 -11 -10 -8 4 -8 0 0 -15 14 -24 23 -28 14
-5 -4 12 2 11 31 -5 20 -11 36 -17 36 -13 0 13 -49 67 -50 55 0 -7 5 -13 10
-13 6 0 10 -6 10 -12 -1 -7 -10 -2 -20 11 -16 18 -20 20 -20 7z"/>
<path d="M5306 1927 c3 -10 9 -15 12 -12 3 3 0 11 -7 18 -10 9 -11 8 -5 -6z"/>
<path d="M5356 1925 c4 -8 11 -15 16 -15 6 0 5 6 -2 15 -7 8 -14 15 -16 15 -2
0 -1 -7 2 -15z"/>
<path d="M3896 1905 c9 -14 19 -24 21 -21 7 7 -16 46 -28 46 -5 0 -2 -11 7
-25z"/>
<path d="M5180 1870 c0 -5 5 -10 11 -10 5 0 7 5 4 10 -3 6 -8 10 -11 10 -2 0
-4 -4 -4 -10z"/>
<path d="M5316 1803 c-6 -14 -5 -15 5 -6 7 7 10 15 7 18 -3 3 -9 -2 -12 -12z"/>
<path d="M5288 1778 c7 -7 12 -20 12 -30 0 -10 5 -18 10 -18 6 0 10 -5 10 -11
0 -5 -4 -7 -10 -4 -6 4 -10 -6 -10 -22 1 -26 2 -27 15 -9 13 16 14 14 10 -23
-3 -32 0 -43 15 -51 25 -14 30 -13 30 6 0 12 6 11 33 -8 l32 -22 -28 37 c-21
28 -24 35 -10 30 17 -6 16 -5 -1 15 -11 12 -16 25 -13 29 4 3 7 2 7 -4 0 -6 7
-13 15 -17 13 -4 13 -2 5 14 -5 10 -19 22 -30 25 -11 3 -20 13 -20 21 0 10 -8
14 -22 12 -11 -2 -23 2 -25 9 -3 7 5 10 21 9 14 -2 26 1 26 7 0 5 -13 7 -30 5
-16 -3 -30 -1 -30 4 0 4 -5 8 -12 8 -9 0 -9 -3 0 -12z m82 -78 c0 -5 -2 -10
-4 -10 -3 0 -8 5 -11 10 -3 6 -1 10 4 10 6 0 11 -4 11 -10z"/>
<path d="M5183 1663 c-24 -2 -43 -8 -43 -12 0 -10 128 -6 138 4 4 5 1 5 -5 1
-7 -4 -13 -2 -13 3 0 6 -8 10 -17 9 -10 -1 -37 -3 -60 -5z"/>
<path d="M5305 1650 c3 -5 8 -10 11 -10 2 0 4 5 4 10 0 6 -5 10 -11 10 -5 0
-7 -4 -4 -10z"/>
<path d="M5015 1641 c-11 -5 -75 -14 -143 -21 -67 -7 -125 -17 -128 -21 -4 -7
0 -49 21 -219 14 -111 56 -356 69 -398 11 -38 48 -209 59 -272 2 -8 8 -40 15
-70 7 -30 21 -104 32 -165 11 -60 22 -119 25 -130 2 -11 15 -81 29 -155 13
-74 27 -147 31 -162 l7 -28 198 0 c181 0 199 2 203 17 4 17 5 17 6 1 1 -23 41
-24 41 -2 0 25 -32 45 -49 31 -11 -9 -12 -7 -9 8 2 13 10 19 23 17 16 -3 17
-2 6 12 -7 9 -11 22 -8 29 3 8 -1 14 -8 14 -7 0 -10 -8 -7 -19 2 -10 -1 -18
-7 -18 -6 0 -11 6 -11 14 0 27 12 46 29 46 14 0 14 2 1 10 -9 5 -19 5 -26 -1
-8 -7 -15 -6 -19 1 -4 7 2 14 14 17 15 4 19 9 11 17 -6 8 -6 24 -1 44 9 30 8
31 -10 21 -11 -5 -17 -14 -14 -19 3 -6 1 -18 -5 -27 -9 -15 -10 -13 -9 12 1
17 -1 37 -4 45 -7 16 -10 35 -27 136 -5 34 -17 81 -25 104 -12 35 -13 45 -3
52 8 4 9 8 2 8 -13 0 -39 103 -30 118 3 6 2 13 -4 17 -5 3 -10 17 -10 30 0 13
-4 26 -9 30 -6 3 -8 19 -6 35 2 17 -1 30 -7 30 -6 0 -8 9 -5 20 3 11 -1 34
-10 50 -8 16 -15 52 -16 80 -1 27 -5 50 -9 50 -5 0 -8 11 -8 24 0 14 -4 27
-10 31 -5 3 -7 12 -3 20 3 9 0 22 -7 30 -6 8 -9 23 -5 34 3 10 1 22 -5 26 -17
10 -11 25 8 18 13 -5 12 -1 -5 14 -13 11 -24 35 -26 56 -2 20 -10 43 -17 52
-10 12 -9 15 6 15 16 0 17 2 4 10 -13 9 -13 11 0 20 12 8 10 10 -10 10 -20 0
-22 2 -10 10 13 8 13 13 2 31 -12 19 -12 21 2 16 15 -6 15 -4 0 18 -9 14 -14
32 -10 40 3 10 -1 15 -12 16 -9 0 -12 3 -6 5 7 3 10 14 7 24 -6 22 12 28 21 8
3 -7 3 -2 0 12 -4 14 -13 29 -21 33 -11 7 -12 12 -2 23 6 8 10 14 8 15 -40 6
-88 6 -104 0z"/>
<path d="M5300 1624 c0 -6 9 -21 20 -34 24 -28 25 -34 5 -26 -21 8 -19 -11 3
-24 15 -10 14 -11 -5 -7 -22 5 -22 4 -5 -18 12 -16 22 -21 33 -14 9 4 19 5 23
2 3 -3 6 -1 6 5 0 7 -5 12 -12 12 -6 0 -8 3 -5 6 4 4 13 1 22 -6 10 -8 15 -9
15 -2 0 6 -9 16 -20 22 -11 6 -20 15 -20 21 0 6 9 8 20 4 15 -5 20 -2 20 14 0
23 -16 36 -25 21 -3 -5 -1 -10 6 -10 7 0 10 -2 7 -5 -8 -9 -60 14 -74 33 -8 9
-14 12 -14 6z"/>
<path d="M5205 1590 c3 -5 8 -10 11 -10 2 0 4 5 4 10 0 6 -5 10 -11 10 -5 0
-7 -4 -4 -10z"/>
<path d="M3963 1524 c4 -7 0 -15 -8 -18 -12 -4 -13 -9 -4 -24 7 -10 18 -19 25
-19 20 0 17 14 -3 21 -15 6 -15 8 -3 16 13 8 13 11 1 22 -8 7 -11 8 -8 2z"/>
<path d="M5174 1504 c0 -13 6 -22 11 -20 6 1 9 11 7 21 -2 12 1 15 10 9 7 -4
9 -3 5 1 -17 19 -35 13 -33 -11z"/>
<path d="M4275 1490 c3 -5 8 -10 11 -10 2 0 4 5 4 10 0 6 -5 10 -11 10 -5 0
-7 -4 -4 -10z"/>
<path d="M5300 1490 c0 -5 7 -10 15 -10 8 0 15 -5 15 -11 0 -6 -9 -9 -20 -6
-23 6 -27 -11 -5 -19 8 -4 15 -10 15 -16 0 -5 -4 -6 -10 -3 -5 3 -10 -1 -10
-9 0 -9 -5 -16 -11 -16 -8 0 -8 -4 -1 -13 13 -15 59 -20 67 -7 3 6 -6 10 -22
11 l-28 1 25 7 c14 4 32 3 40 -2 8 -5 3 2 -12 16 -29 27 -39 49 -14 28 9 -8
16 -8 20 -2 4 5 -2 14 -11 20 -13 7 -14 10 -4 11 8 0 24 -8 35 -17 20 -18 20
-17 6 2 -20 27 -31 34 -46 28 -6 -2 -15 0 -19 6 -8 14 -25 14 -25 1z"/>
<path d="M5180 1461 c0 -6 4 -13 10 -16 6 -3 7 1 4 9 -7 18 -14 21 -14 7z"/>
<path d="M3977 1430 c3 -11 9 -20 15 -20 5 0 4 9 -2 20 -6 11 -12 20 -14 20
-2 0 -2 -9 1 -20z"/>
<path d="M3946 1421 c-4 -6 -2 -11 4 -11 7 0 10 -6 7 -14 -4 -10 0 -12 15 -8
13 3 16 7 8 12 -7 4 -16 13 -20 20 -5 9 -9 9 -14 1z"/>
<path d="M5180 1420 c0 -5 5 -10 10 -10 6 0 10 5 10 10 0 6 -4 10 -10 10 -5 0
-10 -4 -10 -10z"/>
<path d="M4288 1413 c6 -2 10 -9 6 -14 -3 -5 2 -9 12 -9 13 0 14 3 4 15 -7 8
-18 15 -24 14 -7 0 -6 -2 2 -6z"/>
<path d="M3925 1360 c3 -5 8 -10 11 -10 2 0 4 5 4 10 0 6 -5 10 -11 10 -5 0
-7 -4 -4 -10z"/>
<path d="M3970 1360 c0 -5 5 -10 11 -10 5 0 7 5 4 10 -3 6 -8 10 -11 10 -2 0
-4 -4 -4 -10z"/>
<path d="M5245 1360 c3 -5 8 -10 11 -10 2 0 4 5 4 10 0 6 -5 10 -11 10 -5 0
-7 -4 -4 -10z"/>
<path d="M5280 1360 c0 -3 3 -10 6 -13 11 -11 12 -67 2 -67 -5 0 -6 -5 -3 -11
14 -21 13 -57 -1 -52 -17 6 -18 -9 -2 -25 9 -9 8 -12 -6 -12 -12 0 -16 -5 -12
-15 3 -8 0 -15 -7 -15 -21 0 -20 -83 1 -105 26 -29 35 -57 20 -67 -9 -5 -8 -8
6 -8 16 0 16 -2 -5 -21 -15 -13 -18 -19 -8 -16 13 4 15 1 12 -14 -3 -12 0 -19
8 -19 12 0 12 -2 0 -9 -11 -7 -12 -22 -2 -91 14 -96 20 -112 33 -104 6 4 5 -3
-1 -15 -9 -16 -9 -21 0 -19 18 4 31 -52 13 -59 -7 -3 -11 -9 -8 -14 3 -5 10
-6 16 -3 7 4 7 0 0 -13 -8 -14 -7 -31 3 -60 8 -22 17 -63 21 -92 4 -28 10 -51
15 -51 5 0 9 -5 9 -11 0 -5 -4 -8 -9 -5 -8 5 -6 -18 5 -72 8 -40 36 -7 33 39
-2 21 0 41 3 45 8 7 -2 37 -16 46 -6 4 -5 12 2 21 10 12 10 18 -3 30 -18 19
-19 34 -2 40 9 3 7 10 -6 24 -12 14 -16 29 -11 47 3 15 2 26 -4 26 -6 0 -8 10
-5 23 4 18 3 19 -7 7 -9 -12 -10 -9 -5 14 4 19 2 32 -6 37 -9 5 -14 36 -16 86
-3 103 -8 134 -23 143 -9 5 -8 9 3 13 12 4 15 19 12 59 -4 69 -4 68 -12 67
-19 -3 -33 2 -33 12 0 6 9 9 20 6 11 -3 23 -1 26 4 3 5 0 9 -6 9 -20 0 -53 37
-40 45 6 4 23 -4 37 -16 22 -20 25 -21 20 -6 -4 10 -7 21 -7 23 0 2 -7 4 -15
4 -8 0 -15 7 -15 15 0 8 4 15 10 15 5 0 7 7 4 15 -5 11 -2 13 10 9 9 -3 16 -1
16 5 0 7 -7 14 -15 17 -28 11 -17 32 15 28 25 -3 28 -1 18 10 -8 9 -15 10 -19
4 -4 -7 -13 -7 -25 1 -17 9 -17 10 -1 11 9 0 17 5 17 10 0 6 -8 10 -17 10 -15
0 -15 2 -4 9 8 5 21 7 29 3 10 -3 13 -1 8 6 -4 7 -14 12 -22 12 -8 0 -14 7
-14 15 0 21 16 19 40 -5 20 -20 27 -16 12 7 -9 13 -92 44 -92 33z m-6 -306 c3
-8 2 -12 -4 -9 -6 3 -10 10 -10 16 0 14 7 11 14 -7z m56 -74 c0 -5 -2 -10 -4
-10 -3 0 -8 5 -11 10 -3 6 -1 10 4 10 6 0 11 -4 11 -10z m-20 -145 c0 -8 -2
-15 -4 -15 -2 0 -6 7 -10 15 -3 8 -1 15 4 15 6 0 10 -7 10 -15z"/>
<path d="M5220 1321 c0 -6 4 -13 10 -16 6 -3 7 1 4 9 -7 18 -14 21 -14 7z"/>
<path d="M3788 1273 c7 -3 16 -2 19 1 4 3 -2 6 -13 5 -11 0 -14 -3 -6 -6z"/>
<path d="M3875 940 c3 -5 10 -10 16 -10 5 0 9 5 9 10 0 6 -7 10 -16 10 -8 0
-12 -4 -9 -10z"/>
<path d="M3888 803 c7 -3 16 -2 19 1 4 3 -2 6 -13 5 -11 0 -14 -3 -6 -6z"/>
<path d="M5357 760 c3 -11 7 -20 9 -20 2 0 4 9 4 20 0 11 -4 20 -9 20 -5 0 -7
-9 -4 -20z"/>
<path d="M3950 725 c-10 -13 -9 -15 9 -15 11 0 21 4 21 9 0 18 -18 21 -30 6z"/>
<path d="M5430 601 c0 -6 4 -13 10 -16 6 -3 7 1 4 9 -7 18 -14 21 -14 7z"/>
<path d="M3961 581 c-15 -10 -6 -31 12 -30 8 0 7 3 -2 6 -11 4 -11 7 0 14 7 4
11 10 8 13 -2 3 -11 1 -18 -3z"/>
<path d="M3967 469 c7 -7 15 -10 18 -7 3 3 -2 9 -12 12 -14 6 -15 5 -6 -5z"/>
<path d="M4026 471 c-12 -5 -15 -10 -9 -14 6 -4 16 0 23 8 14 17 13 17 -14 6z"/>
<path d="M5495 450 c-3 -6 1 -7 9 -4 18 7 21 14 7 14 -6 0 -13 -4 -16 -10z"/>
<path d="M4018 383 c7 -3 16 -2 19 1 4 3 -2 6 -13 5 -11 0 -14 -3 -6 -6z"/>
<path d="M3990 330 c-8 -5 -10 -10 -5 -10 6 0 17 5 25 10 8 5 11 10 5 10 -5 0
-17 -5 -25 -10z"/>
<path d="M4518 193 c6 -2 18 -2 25 0 6 3 1 5 -13 5 -14 0 -19 -2 -12 -5z"/>
<path d="M5543 155 c-10 -11 -9 -13 7 -12 11 1 20 7 20 14 0 17 -12 16 -27 -2z"/>
<path d="M4045 93 c3 -8 5 -17 5 -19 0 -2 8 -4 18 -4 13 0 14 2 3 9 -7 5 -11
13 -8 18 3 5 -1 10 -9 10 -9 0 -13 -6 -9 -14z"/>
<path d="M4158 13 c7 -3 16 -2 19 1 4 3 -2 6 -13 5 -11 0 -14 -3 -6 -6z"/>
<path d="M5498 3 c7 -3 16 -2 19 1 4 3 -2 6 -13 5 -11 0 -14 -3 -6 -6z"/>
</g>
</svg>
